<svg xmlns="http://www.w3.org/2000/svg" viewBox="0 0 154.67529 154.6757">
  <defs>
    <style>
      .cls-1 {
        fill: #185787;
      }

      .cls-2 {
        fill: #8a603c;
      }

      .cls-3 {
        fill: #07171b;
      }

      .cls-4 {
        fill: #a84720;
      }

      .cls-5 {
        fill: #af5b2b;
      }

      .cls-6 {
        fill: #4b190d;
      }

      .cls-7 {
        fill: #c2986b;
      }

      .cls-8 {
        fill: #f39e2b;
      }

      .cls-9 {
        fill: #f6f3cf;
      }

      .cls-10 {
        fill: #3b3e43;
      }

      .cls-11 {
        fill: #fff;
      }

      .cls-12 {
        fill: #f3dbbd;
      }
    </style>
  </defs>
  <title>Fichier 8</title>
  <g id="Calque_2" data-name="Calque 2">
    <g id="background">
      <path class="cls-1" d="M154.67529,77.3388A77.33765,77.33765,0,1,1,77.33789,0,77.33712,77.33712,0,0,1,154.67529,77.3388Z"/>
    </g>
    <g id="object">
      <g>
        <path class="cls-2" d="M126.73049,94.833a25.34155,25.34155,0,1,1-25.3418-25.3418A25.33946,25.33946,0,0,1,126.73049,94.833Z"/>
        <path class="cls-2" d="M78.62939,94.9296a25.34205,25.34205,0,1,1-25.3428-25.3427A25.34034,25.34034,0,0,1,78.62939,94.9296Z"/>
        <g>
          <path class="cls-3" d="M72.06979,115.58c-.00579.0079-.0137.0215-.0185.0274a.09674.09674,0,0,0,.0146-.0303Z"/>
          <path class="cls-3" d="M72.03419,115.58l.0171.0274a.17108.17108,0,0,1-.0152-.0303Z"/>
        </g>
        <g>
          <path class="cls-4" d="M77.769,114.0849c-.01361,0-.02681-.0029-.03761-.0029.0108,0,.024-.0029.03761-.0029Z"/>
          <path class="cls-4" d="M77.69189,114.0849c.01411,0,.0288-.0029.0395-.0029-.0107,0-.02539-.0029-.0395-.0029Z"/>
        </g>
        <g>
          <g>
            <g>
              <g>
                <circle class="cls-5" cx="106.57469" cy="47.3925" r="16.71655"/>
                <path class="cls-6" d="M96.93849,47.3925a9.6367,9.6367,0,1,0,9.6362-9.6367A9.63611,9.63611,0,0,0,96.93849,47.3925Z"/>
              </g>
              <g>
                <circle class="cls-2" cx="106.57469" cy="47.3925" r="16.71655"/>
                <path class="cls-7" d="M96.93849,47.3925a9.6367,9.6367,0,1,0,9.6362-9.6367A9.63611,9.63611,0,0,0,96.93849,47.3925Z"/>
              </g>
              <path class="cls-8" d="M77.84619,38.1845V97.4179a.15756.15756,0,0,1,.021.0117l-.021,8.4532v2.0176h-.0034l-.0357,13.6875"/>
              <line class="cls-9" x1="77.83979" y1="123.1328" x2="77.89839" y2="97.4296"/>
            </g>
            <path class="cls-6" d="M77.85009,44.3691h0Z"/>
            <path class="cls-6" d="M77.811,44.3691h0Z"/>
          </g>
          <g>
            <g>
              <g>
                <path class="cls-5" d="M65.68409,47.3925a16.71655,16.71655,0,1,1-16.7168-16.7168A16.71646,16.71646,0,0,1,65.68409,47.3925Z"/>
                <path class="cls-6" d="M58.604,47.3925a9.637,9.637,0,1,1-9.63671-9.6367A9.63653,9.63653,0,0,1,58.604,47.3925Z"/>
              </g>
              <g>
                <path class="cls-2" d="M65.68409,47.3925a16.71655,16.71655,0,1,1-16.7168-16.7168A16.71646,16.71646,0,0,1,65.68409,47.3925Z"/>
                <path class="cls-7" d="M58.604,47.3925a9.637,9.637,0,1,1-9.63671-9.6367A9.63653,9.63653,0,0,1,58.604,47.3925Z"/>
              </g>
              <path class="cls-8" d="M77.69579,38.1845V97.4179c-.00679.0049-.0147.0059-.021.0117l.021,8.4532v2.0176h.0039l.0352,13.6875"/>
              <path class="cls-2" d="M119.08349,80.7197c0-22.1651-9.9531-42.5352-41.2891-42.5352l-.04539.4717v-.4717c-31.33741,0-41.29,20.3701-41.29,42.5352-2.333,9.5058-6.41121,9.2373-4.11571,21.3818,2.2944,12.1446,15.30071,16.6387,24.791,16.8965v-8.0488c0-6.0196,9.74171-1.8565,10.4008-3.3008,6.8848,2.7227,3.13291-1.0957,4.4991,1.7803a11.71414,11.71414,0,0,1,5.71481-1.5283v-.21l.04539.21a11.71392,11.71392,0,0,1,5.7139,1.5283c1.3662-2.876-5.646,3.6201,1.2402.8974.6587,1.4453,13.6602-5.3965,13.6602.6231v8.0488c8.1431,0,23.0615.125,23.8257-15.3672C122.89939,90.1621,121.41649,90.2255,119.08349,80.7197Z"/>
              <line class="cls-9" x1="77.70209" y1="123.1328" x2="77.644" y2="97.4296"/>
            </g>
            <path class="cls-6" d="M77.69189,44.3691h0Z"/>
            <path class="cls-6" d="M77.73139,44.3691h0Z"/>
          </g>
        </g>
        <g>
          <path class="cls-10" d="M87.54149,73.8828a5.8203,5.8203,0,1,0,5.8203-5.8203A5.81874,5.81874,0,0,0,87.54149,73.8828Z"/>
          <path class="cls-11" d="M92.04979,69.3105a3.05715,3.05715,0,1,0,3.0581-3.0566A3.05673,3.05673,0,0,0,92.04979,69.3105Z"/>
        </g>
        <g>
          <path class="cls-10" d="M70.32709,73.8828a5.819,5.819,0,1,1-5.8178-5.8203A5.81667,5.81667,0,0,1,70.32709,73.8828Z"/>
          <path class="cls-11" d="M65.81839,69.3105a3.0562,3.0562,0,1,1-3.0562-3.0566A3.0551,3.0551,0,0,1,65.81839,69.3105Z"/>
        </g>
        <path class="cls-12" d="M91.32569,96.5078c-3.6118-1.1407-6.4478-2.5762-13.55469.9218-7.10791-3.498-9.94241-2.0625-13.55421-.9218-1.689.6953-7.0825,3.5283-7.0825,14.4414,0,5.3008-.1201,8.5166-.1201,9.2265,6.375,2.2764,8.7036,3.8243,21.3261,3.8243,12.6236,0,13.3135-1.6446,19.688-3.92,0-.7089.3804-3.83.3804-9.1308C98.40869,100.0361,93.01419,97.2031,91.32569,96.5078Z"/>
        <path class="cls-10" d="M87.26119,95.5527c0,3.4414-3.9804,7.7275-8.8911,7.7275S69.478,98.9941,69.478,95.5527s3.98149-6.2324,8.89209-6.2324S87.26119,92.1113,87.26119,95.5527Z"/>
        <g>
          <path class="cls-10" d="M70.00049,112.7646c-2.1831,0-4.6021-1.0752-7.2202-3.2187a.81692.81692,0,0,1,1.0356-1.2637c3.06011,2.5049,5.6983,3.3613,7.8364,2.5498,4.2608-1.6211,5.522-9.2461,5.5332-9.3242a.817.817,0,0,1,1.6133.2597c-.0547.3496-1.4321,8.6368-6.5664,10.5889A6.20967,6.20967,0,0,1,70.00049,112.7646Z"/>
          <path class="cls-10" d="M85.15579,113.4795a5.15211,5.15211,0,0,1-1.938-.3711c-4.8819-1.9532-5.7964-11.0079-5.8335-11.3936a.81516.81516,0,1,1,1.623-.1543c.2271,2.3457,1.5313,8.7188,4.8194,10.0332,1.8017.7217,4.101-.1133,6.8291-2.4805a.816.816,0,1,1,1.0698,1.2325C89.32029,112.4316,87.12009,113.4795,85.15579,113.4795Z"/>
        </g>
        <path class="cls-11" d="M84.16309,93.6875c-.2075.8252-1.4234,1.2246-2.7119.8964-1.2891-.331-2.1636-1.2695-1.9571-2.0957.209-.8242,1.42191-1.2246,2.71-.8955C83.49409,91.9248,84.36959,92.8613,84.16309,93.6875Z"/>
      </g>
    </g>
  </g>
</svg>
