<svg xmlns="http://www.w3.org/2000/svg" viewBox="0 0 154.67529 154.6757">
  <defs>
    <style>
      .cls-1 {
        fill: #f15a2d;
      }

      .cls-2 {
        fill: #8b613c;
      }

      .cls-3 {
        fill: #3c3e43;
      }

      .cls-4 {
        fill: none;
      }

      .cls-5 {
        fill: #e96331;
      }

      .cls-6 {
        fill: #a94824;
      }

      .cls-7 {
        fill: #3d342f;
      }

      .cls-8 {
        fill: #fff;
      }

      .cls-9 {
        fill: #c2986b;
      }
    </style>
  </defs>
  <title>Fichier 1</title>
  <g id="Calque_2" data-name="Calque 2">
    <g id="Calque_1-2" data-name="Calque 1">
      <circle class="cls-1" cx="77.33777" cy="77.33788" r="77.33777" transform="translate(-14.34425 17.69993) rotate(-11.95657)"/>
      <g>
        <g>
          <path class="cls-2" d="M62.48629,45.768C60.958,43.0586,56.51459,35.8676,51.124,33.5737c-6.55371-2.79-11.64651,20.5259-3.792,27.0405-.09181.1651-.17281.3384-.26361.5039C53.93159,58.3042,59.22659,52.3965,62.48629,45.768Zm-11.6318,9.6739c-4.918-3.7393-.668-15.6153.8281-14.3667,1.02341.853,3.626,5.4506,5.27441,8.4795A36.23214,36.23214,0,0,0,50.85449,55.4419Z"/>
          <path class="cls-3" d="M50.499,56.7998a42.92168,42.92168,0,0,1,7.24809-6.9927c-1.959-3.5981-5.0479-9.0586-6.2657-10.0723C49.70309,38.2524,44.65619,52.3579,50.499,56.7998Z"/>
        </g>
        <g>
          <path class="cls-2" d="M111.56149,61.1181c-.0898-.1655-.1709-.3388-.2637-.5039,7.8555-6.5146,2.7637-29.8305-3.791-27.0405-5.3896,2.2939-9.834,9.4849-11.3623,12.1943C99.40329,52.3965,104.69919,58.3042,111.56149,61.1181Zm-9.8877-11.5634c1.6485-3.0289,4.251-7.6265,5.2744-8.4795,1.4961-1.2486,5.7461,10.6274.8282,14.3667A36.27075,36.27075,0,0,0,101.67379,49.5547Z"/>
          <path class="cls-3" d="M108.13179,56.7998a42.99,42.99,0,0,0-7.247-6.9927c1.958-3.5981,5.0478-9.0586,6.2646-10.0723C108.92679,38.2524,113.97359,52.3579,108.13179,56.7998Z"/>
        </g>
        <path class="cls-4" d="M49.57129,93.1504A52.6161,52.6161,0,0,1,59.291,97.4907c.00779-.0493.01759-.0982.02339-.146A37.83091,37.83091,0,0,0,49.57129,93.1504Z"/>
        <path class="cls-5" d="M77.67479,39.5366v.0019c.0127,0,.0264-.0019.0381-.0019Z"/>
        <path class="cls-6" d="M77.751,39.5366h-.03811c.0117,0,.0244.0019.03811.0019Z"/>
        <path class="cls-2" d="M117.10549,78.8017A39.26313,39.26313,0,0,0,77.915,39.5395v-.0029c-.01271,0-.02631.0019-.04.0019-.01171,0-.02151-.0019-.03521-.0019v.0029h-.1103v-.0029c-.0127,0-.0254.0019-.0371.0019-.0137,0-.02439-.0019-.0381-.0019v.0029a39.263,39.263,0,0,0-39.1904,39.2622c0,.5108-9.4346,11.1529-2.9873,23.8638,3.5625,7.0298,22.6103,6.3843,41.3505,6.5903,19.8692.2183,39.4873.8638,43.2666-6.5903C126.53909,89.9546,117.10549,79.3125,117.10549,78.8017Z"/>
        <g>
          <path class="cls-2" d="M83.85739,94.9511a25.39255,25.39255,0,1,1-25.3926-25.3925A25.392,25.392,0,0,1,83.85739,94.9511Z"/>
          <path class="cls-2" d="M123.75879,95.9404a25.3926,25.3926,0,1,1-25.3926-25.3926A25.39223,25.39223,0,0,1,123.75879,95.9404Z"/>
        </g>
        <g>
          <g>
            <path class="cls-7" d="M57.83009,95.6294a.68182.68182,0,0,1-.4766-.1929c-.0928-.0903-9.5957-9.0825-36.5254-13.1968a.68142.68142,0,0,1-.5703-.7759.69008.69008,0,0,1,.7764-.5698c27.4326,4.1904,36.88281,13.188,37.2715,13.5684a.68119.68119,0,0,1-.4756,1.167Z"/>
            <path class="cls-7" d="M56.24409,99.1635a.677.677,0,0,1-.3369-.0883c-.1113-.064-11.5849-6.3648-38.6738-3.5425a.68869.68869,0,0,1-.7481-.606.68116.68116,0,0,1,.6075-.747c27.6054-2.878,39.0156,3.4428,39.49021,3.7133a.68039.68039,0,0,1-.33891,1.2705Z"/>
            <path class="cls-7" d="M16.87209,108.7612a.6808.6808,0,0,1-.2217-1.3247c26.2519-8.9922,38.7939-5.3975,39.3164-5.2383a.68053.68053,0,0,1-.3926,1.3032c-.124-.0381-12.7129-3.603-38.4814,5.2227A.69391.69391,0,0,1,16.87209,108.7612Z"/>
          </g>
          <g>
            <path class="cls-3" d="M85.956,89.3979c0,3.0508-3.56151,6.8486-7.95411,6.8486-4.3916,0-7.9511-3.7978-7.9511-6.8486,0-3.0498,3.5595-5.522,7.9511-5.522C82.39449,83.8759,85.956,86.3481,85.956,89.3979Z"/>
            <g>
              <path class="cls-3" d="M69.71189,105.5786c-2.1807,0-4.5967-1.0757-7.21289-3.2158a.81542.81542,0,0,1,1.03319-1.2618c3.0586,2.502,5.6924,3.3594,7.8291,2.5474,4.2569-1.6196,5.5196-9.2393,5.5303-9.3149a.81635.81635,0,0,1,1.6123.2573c-.0566.352-1.4326,8.6294-6.5615,10.581A6.23577,6.23577,0,0,1,69.71189,105.5786Z"/>
              <path class="cls-3" d="M84.85349,106.2939a5.15371,5.15371,0,0,1-1.93549-.3701c-4.87891-1.9522-5.792-10.9995-5.83011-11.3843a.81663.81663,0,0,1,1.626-.1538c.2236,2.3423,1.5263,8.7109,4.8125,10.023,1.8007.7216,4.0957-.1133,6.8232-2.4781a.81609.81609,0,1,1,1.06841,1.2339C89.01459,105.2461,86.81639,106.2939,84.85349,106.2939Z"/>
            </g>
            <path class="cls-8" d="M83.18259,87.7456c-.18459.7324-1.2715,1.0859-2.4228.7939-1.1534-.293-1.9366-1.1235-1.753-1.8559.1866-.7315,1.2744-1.0865,2.4258-.794C82.585,86.184,83.36819,87.0132,83.18259,87.7456Z"/>
          </g>
          <g>
            <path class="cls-7" d="M96.84569,96.9902a.68068.68068,0,0,1-.4766-1.166c.3897-.3814,9.84091-9.3779,37.2715-13.5689a.6807.6807,0,1,1,.2061,1.3457C106.917,87.7148,97.415,96.7075,97.32129,96.7978A.67959.67959,0,0,1,96.84569,96.9902Z"/>
            <path class="cls-7" d="M98.43069,100.5254a.68037.68037,0,0,1-.3379-1.271c.4716-.2701,11.8906-6.5909,39.49021-3.7134a.67989.67989,0,0,1-.14061,1.3525c-27.1699-2.8257-38.5625,3.4776-38.6748,3.542A.66864.66864,0,0,1,98.43069,100.5254Z"/>
            <path class="cls-7" d="M137.80469,110.122a.70772.70772,0,0,1-.22169-.0361c-25.76561-8.8257-38.35741-5.2602-38.48341-5.2227a.68086.68086,0,0,1-.39159-1.3042c.52249-.1572,13.06249-3.7529,39.31739,5.2388a.68068.68068,0,0,1-.2207,1.3242Z"/>
          </g>
        </g>
        <path class="cls-9" d="M69.46389,61.1762c-5.0586-1.4736-12.50589-1.6211-16.7256,8.1275-4.2188,9.7466-3.69629,17.9184,0,19.7055,3.6963,1.7881,21.8261-4.3403,23.3584-11.2353C77.62889,70.8799,75.60059,62.9638,69.46389,61.1762Z"/>
        <path class="cls-9" d="M81.86819,77.7744c1.5332,6.8945,19.664,13.0234,23.3593,11.2353,3.6973-1.7871,4.2188-9.959,0-19.7055-4.2187-9.7486-11.667-9.6011-16.7256-8.1275C82.36619,62.9643,80.33689,70.8808,81.86819,77.7744Z"/>
        <g>
          <g>
            <path class="cls-3" d="M87.60639,72.5713a6.0215,6.0215,0,1,0,6.0215-6.022A6.02114,6.02114,0,0,0,87.60639,72.5713Z"/>
            <path class="cls-8" d="M92.27149,67.8413a3.1621,3.1621,0,1,0,3.1621-3.1616A3.16039,3.16039,0,0,0,92.27149,67.8413Z"/>
          </g>
          <g>
            <path class="cls-3" d="M69.80079,72.5713a6.01855,6.01855,0,1,1-6.0166-6.022A6.017,6.017,0,0,1,69.80079,72.5713Z"/>
            <path class="cls-8" d="M65.13769,67.8413a3.16015,3.16015,0,1,1-3.1602-3.1616A3.15877,3.15877,0,0,1,65.13769,67.8413Z"/>
          </g>
        </g>
      </g>
    </g>
  </g>
</svg>
