<svg xmlns="http://www.w3.org/2000/svg" xmlns:xlink="http://www.w3.org/1999/xlink" viewBox="0 0 154.6758 154.6757">
  <defs>
    <style>
      .cls-1 {
        fill: none;
      }

      .cls-2 {
        fill: #62a5a2;
      }

      .cls-3 {
        fill: #ea692b;
      }

      .cls-4 {
        fill: #f3dbbd;
      }

      .cls-5 {
        fill: #f6f3cf;
      }

      .cls-6 {
        fill: #e96332;
      }

      .cls-7 {
        fill: #a84720;
      }

      .cls-8 {
        fill: #3b3e43;
      }

      .cls-9 {
        fill: #fff;
      }

      .cls-10 {
        clip-path: url(#clip-path);
      }

      .cls-11 {
        fill: #3d342f;
      }
    </style>
    <clipPath id="clip-path">
      <path class="cls-1" d="M115.5605,85.3505A37.73823,37.73823,0,0,0,77.8926,47.6123v-.002c-.0127,0-.0254.002-.0391.002-.0098,0-.0215-.002-.03519-.002v.002H77.7148v-.002c-.0127,0-.0234.002-.0371.002-.0127,0-.02339-.002-.0361-.002v.002a37.73911,37.73911,0,0,0-37.669,37.7382c0,.4903-9.0664,10.7198-2.872,22.9375,3.42571,6.7559,22.33,13.9756,40.3408,14.1739,19.0996.2099,37.3594-7.0108,40.9922-14.1739C124.6279,96.0703,115.5605,85.8408,115.5605,85.3505Z"/>
    </clipPath>
  </defs>
  <title>Fichier 9</title>
  <g id="Calque_2" data-name="Calque 2">
    <g id="background">
      <path class="cls-2" d="M154.6758,77.3388A77.3379,77.3379,0,1,1,77.3369,0,77.33744,77.33744,0,0,1,154.6758,77.3388Z"/>
    </g>
    <g id="object">
      <g>
        <g>
          <path class="cls-3" d="M91.6787,42.7343c-4.3242,6.0918-2.5108,14.8067,4.0478,19.4649,6.5616,4.6562,15.38581,3.4931,19.71-2.5977,4.3232-6.0898,5.1299-24.123,2.4209-26.7793C115.15131,30.167,96.0058,36.6445,91.6787,42.7343Z"/>
          <path class="cls-4" d="M94.9404,47.0546c-2.4209,4.0577-.8418,9.459,3.5283,12.0625,4.3692,2.6075,9.8741,1.4336,12.2979-2.624,2.417-4.0576,5.7148-17.9179,2.6064-19.4951C110.2627,35.4228,97.36131,42.9941,94.9404,47.0546Z"/>
        </g>
        <g>
          <path class="cls-3" d="M65.1758,42.7343c4.3232,6.0918,2.5097,14.8067-4.0489,19.4649-6.5605,4.6562-15.3838,3.4931-19.709-2.5977-4.3251-6.0898-5.1308-24.123-2.4228-26.7793C41.7021,30.167,60.8486,36.6445,65.1758,42.7343Z"/>
          <path class="cls-4" d="M61.9121,47.0546c2.4209,4.0577.8428,9.459-3.5283,12.0625-4.3692,2.6075-9.8731,1.4336-12.2959-2.624-2.418-4.0576-5.7178-17.9179-2.6075-19.4951C46.5908,35.4228,59.4931,42.9941,61.9121,47.0546Z"/>
        </g>
        <path class="cls-5" d="M126.98531,100.3115a11.50743,11.50743,0,0,0-2.29981-1.2412c.2471.1513.4717.2861.6866.4082A13.62314,13.62314,0,0,1,126.98531,100.3115Z"/>
        <path class="cls-5" d="M126.98531,100.3115a13.62314,13.62314,0,0,0-1.61321-.833A16.941,16.941,0,0,0,126.98531,100.3115Z"/>
        <path class="cls-5" d="M30.709,99.0703a11.60972,11.60972,0,0,0-2.3018,1.2412,13.71112,13.71112,0,0,1,1.6143-.833C30.2402,99.3564,30.4658,99.2216,30.709,99.0703Z"/>
        <path class="cls-5" d="M28.4072,100.3115a16.4699,16.4699,0,0,0,1.6143-.833A13.71112,13.71112,0,0,0,28.4072,100.3115Z"/>
        <path class="cls-1" d="M50.6494,99.1406a50.62471,50.62471,0,0,1,9.3437,4.1728c.0049-.0459.0147-.0947.0206-.1396A36.337,36.337,0,0,0,50.6494,99.1406Z"/>
        <path class="cls-6" d="M77.6621,47.6103v.002c.0117,0,.0234-.002.0361-.002Z"/>
        <path class="cls-7" d="M77.73531,47.6103H77.6982c.0108,0,.0244.002.03711.002Z"/>
        <path class="cls-3" d="M115.5605,85.3505A37.73823,37.73823,0,0,0,77.8926,47.6123v-.002c-.0127,0-.0254.002-.0391.002-.0098,0-.0215-.002-.03519-.002v.002H77.7148v-.002c-.0127,0-.0234.002-.0371.002-.0127,0-.02339-.002-.0361-.002v.002a37.73911,37.73911,0,0,0-37.669,37.7382c0,.4903-9.0664,10.7198-2.872,22.9375,3.42571,6.7559,22.33,13.9756,40.3408,14.1739,19.0996.2099,37.3594-7.0108,40.9922-14.1739C124.6279,96.0703,115.5605,85.8408,115.5605,85.3505Z"/>
        <g>
          <path class="cls-8" d="M87.207,79.3613a5.7881,5.7881,0,1,0,5.7881-5.7891A5.78944,5.78944,0,0,0,87.207,79.3613Z"/>
          <path class="cls-9" d="M91.6924,74.8164a3.03905,3.03905,0,1,0,3.038-3.0391A3.03805,3.03805,0,0,0,91.6924,74.8164Z"/>
        </g>
        <g>
          <path class="cls-8" d="M70.0947,79.3613a5.78565,5.78565,0,1,1-5.7851-5.7891A5.78688,5.78688,0,0,1,70.0947,79.3613Z"/>
          <path class="cls-9" d="M65.61231,74.8164a3.03861,3.03861,0,1,1-3.03811-3.0391A3.03751,3.03751,0,0,1,65.61231,74.8164Z"/>
        </g>
        <g class="cls-10">
          <path class="cls-4" d="M105.5722,111.3935c0,8.791-12.5947,15.917-28.1308,15.917-15.5342,0-28.1299-7.126-28.1299-15.917,0-8.79,12.5957-15.918,28.1299-15.918C92.9775,95.4755,105.5722,102.6035,105.5722,111.3935Z"/>
        </g>
        <g>
          <path class="cls-8" d="M85.6211,95.5351c0,2.9317-3.4239,6.583-7.6455,6.583-4.2207,0-7.6436-3.6513-7.6436-6.583s3.4229-5.3066,7.6436-5.3066C82.1972,90.2285,85.6211,92.6035,85.6211,95.5351Z"/>
          <g>
            <path class="cls-8" d="M70.0078,111.0879c-2.0957,0-4.418-1.0352-6.9316-3.0909a.78349.78349,0,1,1,.99211-1.2129c2.93949,2.4053,5.47269,3.2286,7.52539,2.4473,4.0909-1.5557,5.3037-8.8789,5.3155-8.9512a.784.784,0,1,1,1.5488.2452c-.0518.3398-1.376,8.2949-6.3076,10.1708A5.95328,5.95328,0,0,1,70.0078,111.0879Z"/>
            <path class="cls-8" d="M84.5615,111.7744a4.96534,4.96534,0,0,1-1.8603-.3545c-4.6885-1.877-5.5665-10.5742-5.6026-10.9424a.78427.78427,0,0,1,1.5615-.1484c.2159,2.2509,1.4678,8.374,4.625,9.6338,1.7305.6933,3.9366-.1075,6.5586-2.3799a.7847.7847,0,0,1,1.0284,1.1855C88.5625,110.7675,86.4492,111.7744,84.5615,111.7744Z"/>
          </g>
          <path class="cls-9" d="M82.956,93.9472c-.17869.7041-1.2216,1.044-2.33.7617-1.1084-.2793-1.8604-1.0791-1.6836-1.7832.1777-.7031,1.2216-1.0439,2.332-.7627C82.3808,92.4453,83.1357,93.2431,82.956,93.9472Z"/>
        </g>
        <g>
          <path class="cls-11" d="M58.5869,101.7177a.84483.84483,0,0,1-.5908-.2412c-.1123-.1084-9.2324-8.6953-35.003-12.6338a.8447.8447,0,1,1,.2559-1.6699c26.4268,4.0361,35.5547,12.7266,35.9297,13.0947a.84663.84663,0,0,1-.5918,1.4502Z"/>
          <path class="cls-11" d="M57.0635,105.1142a.83316.83316,0,0,1-.417-.1103c-.1338-.0743-11.1289-6.0772-37.0606-3.3819a.84483.84483,0,0,1-.1748-1.6806c26.5879-2.7696,37.61721,3.332,38.0733,3.5937a.8449.8449,0,0,1-.4209,1.5791Z"/>
          <path class="cls-11" d="M19.2197,114.3379a.8457.8457,0,0,1-.27439-1.6456c25.28809-8.6611,37.40529-5.1875,37.90719-5.0371a.84547.84547,0,0,1-.4873,1.6192h0c-.1201-.0342-12.1787-3.4405-36.8721,5.0176A.86507.86507,0,0,1,19.2197,114.3379Z"/>
        </g>
        <g>
          <path class="cls-11" d="M96.0888,103.0254a.84624.84624,0,0,1-.5927-1.4493c.376-.3672,9.5019-9.0586,35.9287-13.0947a.84526.84526,0,1,1,.2568,1.6709c-25.8935,3.9541-34.914,12.5449-35.0019,12.6309A.8381.8381,0,0,1,96.0888,103.0254Z"/>
          <path class="cls-11" d="M97.61331,106.4218a.84539.84539,0,0,1-.42191-1.5791c.456-.2607,11.4824-6.3613,38.0723-3.5927a.84489.84489,0,1,1-.1758,1.6806c-25.9629-2.7002-36.9502,3.3203-37.0567,3.3809A.84451.84451,0,0,1,97.61331,106.4218Z"/>
          <path class="cls-11" d="M135.456,115.6464a.86582.86582,0,0,1-.2734-.0449c-24.6914-8.457-36.752-5.0527-36.8721-5.0176a.84542.84542,0,0,1-.4873-1.6191c.503-.1523,12.6192-3.624,37.9082,5.0361a.8459.8459,0,0,1-.2754,1.6455Z"/>
        </g>
      </g>
    </g>
  </g>
</svg>
