<svg xmlns="http://www.w3.org/2000/svg" viewBox="0 0 154.67579 154.6757">
  <defs>
    <style>
      .cls-1 {
        fill: #f0592b;
      }

      .cls-2 {
        fill: #8a603c;
      }

      .cls-3 {
        fill: #c2986b;
      }

      .cls-4 {
        fill: #e0dcd3;
      }

      .cls-5 {
        fill: #3b3e43;
      }

      .cls-6 {
        fill: #fff;
      }
    </style>
  </defs>
  <title>Fichier 7</title>
  <g id="Calque_2" data-name="Calque 2">
    <g id="background">
      <path class="cls-1" d="M154.67579,77.3388A77.3379,77.3379,0,1,1,77.3379,0,77.33786,77.33786,0,0,1,154.67579,77.3388Z"/>
    </g>
    <g id="object">
      <g>
        <g>
          <path class="cls-2" d="M63.5771,49.6543c4.1954,4.4892,3.6778,11.7919-1.1582,16.3105-4.833,4.5195-12.1572,4.542-16.3535.0527-4.1943-4.4902-4.9199-21.5634-4.9199-21.5634S59.3828,45.165,63.5771,49.6543Z"/>
          <path class="cls-3" d="M60.3828,52.6093A7.59932,7.59932,0,0,1,49.3096,62.9589c-2.6543-2.8398-3.1133-13.6377-3.1133-13.6377S57.7295,49.7695,60.3828,52.6093Z"/>
        </g>
        <g>
          <path class="cls-2" d="M89.9678,50.0127c-4.1963,4.4902-3.6768,11.7929,1.1591,16.3105,4.835,4.5195,12.1553,4.543,16.3516.0508,4.1963-4.4873,4.9229-21.5635,4.9229-21.5635S94.1641,45.5214,89.9678,50.0127Z"/>
          <path class="cls-3" d="M93.1631,52.9677a7.5982,7.5982,0,0,0,11.0722,10.3477c2.6543-2.8389,3.1143-13.6367,3.1143-13.6367S95.8164,50.1279,93.1631,52.9677Z"/>
        </g>
        <g>
          <path class="cls-4" d="M72.918,59.2363a2.2289,2.2289,0,0,1-.2412-.0137,2.147,2.147,0,0,1-1.8965-2.3701,64.21179,64.21179,0,0,0,.3232-6.7129c-.0508-5.3418-.9463-6.7392-1.1738-7.0078-2.7403-.0039-10.6592-.1133-17.6592-.2109-5.3994-.0762-10.5-.1475-11.7451-.1475a3.2435,3.2435,0,0,1-2.3711-1.0586c-2.2949-2.4414-2.1074-9.9238-1.919-13.0273a2.1475,2.1475,0,0,1,4.2872.2587c-.2393,3.9815.0429,8.168.6103,9.5352,1.8447.0137,6.2217.0762,11.1992.1445,7.0908.0996,15.127.211,17.7188.211a4.03684,4.03684,0,0,1,3.0644,1.4121c3.1621,3.5332,2.2793,13.9658,1.9326,17.0762A2.146,2.146,0,0,1,72.918,59.2363Z"/>
          <path class="cls-4" d="M49.8301,42.9531a2.147,2.147,0,0,1-2.1455-2.1045l-.1797-8.9473a2.14818,2.14818,0,0,1,2.1045-2.1894h.0449a2.14594,2.14594,0,0,1,2.1445,2.1035l.1787,8.9473a2.14546,2.14546,0,0,1-2.1035,2.1894C49.8603,42.9531,49.8447,42.9531,49.8301,42.9531Z"/>
          <path class="cls-4" d="M60.3877,42.7734a2.14625,2.14625,0,0,1-2.1455-2.084l-.1787-6.083a2.1474,2.1474,0,0,1,4.2929-.1279l.1778,6.0849a2.146,2.146,0,0,1-2.0821,2.21Z"/>
        </g>
        <g>
          <path class="cls-4" d="M81.7588,59.416a2.1463,2.1463,0,0,1-2.1309-1.9112c-.3467-3.1132-1.2285-13.5439,1.9326-17.0761a4.04011,4.04011,0,0,1,3.0655-1.4131c2.5918,0,10.6279-.1123,17.7197-.21,4.9736-.0703,9.3516-.1308,11.1963-.1455.5605-1.3711.8486-5.625.6103-9.5342a2.148,2.148,0,0,1,4.2881-.2607c.1875,3.1055.377,10.5879-1.9189,13.0283a3.24373,3.24373,0,0,1-2.3721,1.0596c-1.2432,0-6.3457.0713-11.7451.1465-6.9981.0976-14.916.208-17.6572.2119-.2286.2695-1.127,1.6719-1.1739,7.0439a64.066,64.066,0,0,0,.3233,6.6758,2.14641,2.14641,0,0,1-1.8985,2.3701A1.94683,1.94683,0,0,1,81.7588,59.416Z"/>
          <path class="cls-4" d="M104.8457,43.1318c-.0137,0-.0283,0-.043-.001a2.14486,2.14486,0,0,1-2.1045-2.1885l.1797-8.9482a2.14693,2.14693,0,0,1,4.293.0859l-.1787,8.9473A2.14789,2.14789,0,0,1,104.8457,43.1318Z"/>
          <path class="cls-4" d="M94.2891,42.9531c-.0206,0-.043-.001-.0645-.001a2.14752,2.14752,0,0,1-2.083-2.2109l.1787-6.083a2.14744,2.14744,0,0,1,4.293.1269l-.1797,6.084A2.146,2.146,0,0,1,94.2891,42.9531Z"/>
        </g>
        <path class="cls-2" d="M103.4492,90.9111c1.2783-21.6982-10.4482-38.1152-27.2256-38.4053v-.001l-.0166.001-.0176-.001v.001c-16.7763.2901-28.5019,16.7071-27.2255,38.4053.5156,8.7285-14.9659,37.0967,26.8037,37.0967.1465,0,.292-.002.4394-.002.1465,0,.292.002.4385.002C118.415,128.0078,102.9346,99.6396,103.4492,90.9111Z"/>
        <path class="cls-5" d="M100.292,111.2519c0,7.2461-10.6572,13.1192-23.8037,13.1192-13.1446,0-23.8018-5.8731-23.8018-13.1192,0-7.2471,10.6572-13.1201,23.8018-13.1201C89.6348,98.1318,100.292,104.0048,100.292,111.2519Z"/>
        <g>
          <path class="cls-5" d="M68.9951,83.2177a4.29445,4.29445,0,1,1-4.2949-4.2959A4.29523,4.29523,0,0,1,68.9951,83.2177Z"/>
          <path class="cls-6" d="M64.999,79.7568a2.74415,2.74415,0,1,1-2.7441-2.7441A2.74452,2.74452,0,0,1,64.999,79.7568Z"/>
        </g>
        <g>
          <path class="cls-5" d="M83.1904,83.2158a4.29445,4.29445,0,1,0,4.2949-4.294A4.2957,4.2957,0,0,0,83.1904,83.2158Z"/>
          <path class="cls-6" d="M87.1885,79.7568a2.74315,2.74315,0,1,0,2.7412-2.7441A2.742,2.742,0,0,0,87.1885,79.7568Z"/>
        </g>
      </g>
    </g>
  </g>
</svg>
