<svg xmlns="http://www.w3.org/2000/svg" xmlns:xlink="http://www.w3.org/1999/xlink" viewBox="0 0 154.6758 154.6758">
  <defs>
    <style>
      .cls-1 {
        fill: none;
      }

      .cls-2 {
        fill: #f0592b;
      }

      .cls-3 {
        fill: #825d42;
      }

      .cls-4 {
        fill: #966a4d;
      }

      .cls-5 {
        clip-path: url(#clip-path);
      }

      .cls-6 {
        fill: #f3dbbd;
      }

      .cls-7 {
        fill: #3d342f;
      }

      .cls-8 {
        fill: #fff;
      }
    </style>
    <clipPath id="clip-path">
      <path class="cls-1" d="M117.4482,92.1358c2.4688,26.0195-16.1865,40.0273-41.3008,40.0273s-42.6406-14.9302-38.32809-48.893C40.8857,59.1138,52.8574,45.5479,79.8545,45.5479,113.15131,45.5479,115.2871,69.3628,117.4482,92.1358Z"/>
    </clipPath>
  </defs>
  <title>Fichier 5</title>
  <g id="Calque_2" data-name="Calque 2">
    <g id="background">
      <path class="cls-2" d="M154.6758,77.3379A77.3379,77.3379,0,1,1,77.3369,0,77.338,77.338,0,0,1,154.6758,77.3379Z"/>
    </g>
    <g id="object">
      <g>
        <path class="cls-3" d="M63.27831,50.0396C63.9414,58.336,37.9131,87.3018,37.9131,87.3018s.3877-.6148.3877-34.6758c.4316-13.9111,11.5029-28.6728,12.93751-29.082C52.6748,23.1343,62.6152,41.7412,63.27831,50.0396Z"/>
        <path class="cls-3" d="M91.8428,49.0147c-.6631,8.2964,25.3642,37.2622,25.3642,37.2622s-.38669-.6148-.38669-34.6753C116.3877,37.69,105.3164,22.9287,103.8818,22.5186,102.4472,22.1094,92.5058,40.7173,91.8428,49.0147Z"/>
        <path class="cls-4" d="M117.4482,92.1358c1.8535,26.9419-16.1865,40.0273-41.3008,40.0273s-43.2568-14.9302-38.32809-48.893C41.3164,59.1714,52.2422,43.7027,79.2392,43.7027,112.5371,43.7027,115.8779,69.315,117.4482,92.1358Z"/>
        <g class="cls-5">
          <path class="cls-6" d="M78.249,92.7857c-9.9941,0-27.01069,15.3247-30.7002,41.2578-3.3701,23.6919,62.0029,20.3252,59.2471-2.6641C104.6347,113.3409,88.2431,92.7857,78.249,92.7857Z"/>
        </g>
        <g>
          <path class="cls-6" d="M89.7451,78.5098a10.5332,10.5332,0,1,0,10.53421-10.5322A10.53289,10.53289,0,0,0,89.7451,78.5098Z"/>
          <g>
            <path class="cls-7" d="M93.5869,78.5962a6.2661,6.2661,0,1,0,6.2666-6.2661A6.2654,6.2654,0,0,0,93.5869,78.5962Z"/>
            <path class="cls-8" d="M98.957,73.4239a2.9844,2.9844,0,1,0,2.9824-2.9839A2.9836,2.9836,0,0,0,98.957,73.4239Z"/>
          </g>
        </g>
        <g>
          <path class="cls-6" d="M66.5937,79.4322A10.5322,10.5322,0,1,1,56.0625,68.9004,10.53072,10.53072,0,0,1,66.5937,79.4322Z"/>
          <g>
            <path class="cls-7" d="M61.2168,80.1333a6.2666,6.2666,0,1,1-6.2656-6.2656A6.26487,6.26487,0,0,1,61.2168,80.1333Z"/>
            <path class="cls-8" d="M55.8467,74.9615a2.9839,2.9839,0,1,1-2.98539-2.9839A2.98517,2.98517,0,0,1,55.8467,74.9615Z"/>
          </g>
        </g>
        <g>
          <path class="cls-7" d="M89.8828,102.8824c0,2.3706-9.14449,6.1772-12.3252,6.1772-3.1816,0-12.7217-3.689-12.7217-6.061,0-2.3701,5.3399-4.2925,11.9268-4.2925C83.3476,98.7061,89.8828,100.5113,89.8828,102.8824Z"/>
          <path class="cls-7" d="M77.7412,126.1675a20.52889,20.52889,0,0,1-12.0635-4.2949.92206.92206,0,0,1,1.1953-1.4043h0c.4112.3477,10.166,8.4214,20.7696.2598a.92273.92273,0,1,1,1.125,1.4629A17.78052,17.78052,0,0,1,77.7412,126.1675Z"/>
          <rect class="cls-7" x="76.4726" y="106.5728" width="2.3096" height="19.3725"/>
        </g>
      </g>
    </g>
  </g>
</svg>
