<svg xmlns="http://www.w3.org/2000/svg" viewBox="0 0 154.6758 154.6758">
  <defs>
    <style>
      .cls-1 {
        fill: #185787;
      }

      .cls-2 {
        fill: #ccc8c0;
      }

      .cls-3 {
        fill: #e0dcd3;
      }

      .cls-4 {
        fill: #f7f1e6;
      }

      .cls-5 {
        fill: #313439;
      }

      .cls-6 {
        fill: #fff;
      }
    </style>
  </defs>
  <title>Fichier 13</title>
  <g id="Calque_2" data-name="Calque 2">
    <g id="background">
      <path class="cls-1" d="M154.6758,77.3389A77.3379,77.3379,0,1,1,77.3369,0,77.33808,77.33808,0,0,1,154.6758,77.3389Z"/>
    </g>
    <g id="object">
      <g>
        <path class="cls-2" d="M57.7529,37.2422a12.01191,12.01191,0,0,0-1.8135-2.0576,23.06985,23.06985,0,0,0-12.3164-5.961c-9.2861-1.3935-24.4912,7.2129-26.5605,35.0938C15.001,92.1953,26.25,94.9463,35.02631,94.9463c7.27739,0,15.67879-5.1387,22.08109-12.4395C61.2109,67.2295,57.7529,37.2588,57.7529,37.2422Z"/>
        <path class="cls-2" d="M97.5449,37.5723a11.98842,11.98842,0,0,1,1.8115-2.0576,23.07024,23.07024,0,0,1,12.3145-5.962c9.2881-1.3935,23.8603,6.5811,25.9297,34.462,2.0625,27.8769-8.5537,31.2627-17.3301,31.2627-7.2764,0-15.6777-5.1397-22.082-12.4405C94.0849,67.5586,97.5429,37.5879,97.5449,37.5723Z"/>
        <path class="cls-3" d="M113.3584,118.9141c-.45609-1.836,3.2187-2.1836,3.95991-8.0293.74609-5.8574-3.957-.2285-3.957-.2285s-3.44241,3.9599-17.207,3.0937c-12.68071-.791-9.16411-15.959-9.11821-21.1357.0137-1.4805.5039-2.8037.9541-2.9854.4512-.1777,1.6983.4893,2.4707,1.7451,1.916,3.0938,3.6201,8.1211,4.5528,11.167.4355,1.4063,1.4892,1.6035,2.0068.2198,1.6904-4.5997.4531-10.8877-.7354-14.9932-.4033-1.417.4961-2.8789.9795-4.0859,12.5293-31.3555.3526-46.2872.3526-46.1719a15.5136,15.5136,0,0,1-2-1.5801,28.43358,28.43358,0,0,0-36.0645-.1689c-.8555.6855-1.5439,1.2939-1.8437,1.54-12.9141,23.5586-1.2149,45.1719-.792,45.585.4316.416.7539.7353.7148.708a15.22408,15.22408,0,0,0-.9668,2.4658c-1.2588,3.876-3.1924,11.4092-1.2539,16.6943.5117,1.3848,1.5733,1.1963,2.0029-.2129,1.0332-3.3642,3.0157-9.1631,5.167-12.0761.8731-1.1895,1.9014-.5157,1.8545.9589-.2754,8.9707-1.4365,17.1905,11.88381,27.7803,11.50979,9.1504,20.99219,5.9902,31.86229,5.3184,1.4756-.0908,3.4834-.5371,4.9395-.2754a15.0542,15.0542,0,0,0,3.4521.1787C120.6992,124.1904,113.81931,120.749,113.3584,118.9141Z"/>
        <path class="cls-4" d="M60.65131,80.5733,56.917,83.0352a56.67852,56.67852,0,0,0-2.3116,16.247c2.6573,12.0459,3.4874,2.3877,4.7735-1.3964a20.07122,20.07122,0,0,1,4.7812-7.0157Z"/>
        <path class="cls-4" d="M95.8349,83.0352,91.457,80.5733,87.3457,90.8701s4.09861,3.2305,5.6064,7.0157c1.5059,3.7841,2.4766,13.4423,5.5908,1.3964A48.73981,48.73981,0,0,0,95.8349,83.0352Z"/>
        <g>
          <path class="cls-5" d="M71.0342,58.9141a4.12695,4.12695,0,1,1-4.128-4.126A4.12731,4.12731,0,0,1,71.0342,58.9141Z"/>
          <path class="cls-6" d="M67.19431,55.5889a2.63621,2.63621,0,1,1-2.63671-2.6358A2.63655,2.63655,0,0,1,67.19431,55.5889Z"/>
        </g>
        <g>
          <path class="cls-5" d="M84.6738,58.9141a4.127,4.127,0,1,0,4.126-4.126A4.12753,4.12753,0,0,0,84.6738,58.9141Z"/>
          <path class="cls-6" d="M88.5146,55.5889a2.63575,2.63575,0,1,0,2.63671-2.6367A2.63591,2.63591,0,0,0,88.5146,55.5889Z"/>
        </g>
      </g>
    </g>
  </g>
</svg>
