<svg xmlns="http://www.w3.org/2000/svg" xmlns:xlink="http://www.w3.org/1999/xlink" viewBox="0 0 154.67579 154.6758">
  <defs>
    <style>
      .cls-1 {
        fill: none;
      }

      .cls-2 {
        fill: #62a5a2;
      }

      .cls-3 {
        fill: #d45f26;
      }

      .cls-4 {
        fill: #f3dbbd;
      }

      .cls-5 {
        fill: #e96332;
      }

      .cls-6 {
        fill: #a84720;
      }

      .cls-7 {
        fill: #ea692b;
      }

      .cls-8 {
        fill: #3b3e43;
      }

      .cls-9 {
        fill: #fff;
      }

      .cls-10 {
        clip-path: url(#clip-path);
      }
    </style>
    <clipPath id="clip-path">
      <path class="cls-1" d="M113.0146,93.4815a35.5394,35.5394,0,0,0-35.476-35.5391v-.0029l-.0337.001-.0342-.001v.0029h-.0986v-.0029l-.0337.001-.0347-.001v.0029A35.53981,35.53981,0,0,0,41.8276,93.4815c0,.4638-8.5405,10.0967-2.7055,21.6035,3.2265,6.3623,21.0302,13.1611,37.9941,13.3477,17.9854.1982,35.1821-6.6016,38.604-13.3477C121.5547,103.5782,113.0146,93.9453,113.0146,93.4815Z"/>
    </clipPath>
  </defs>
  <title>Fichier 3</title>
  <g id="Calque_2" data-name="Calque 2">
    <g id="background">
      <circle class="cls-2" cx="77.3379" cy="77.3379" r="77.3379"/>
    </g>
    <g id="object">
      <g>
        <g>
          <path class="cls-3" d="M91.2373,65.458c7.1636-29.0507,30.7891-39.2197,30.7891-39.2197s16.8886,44.0879-15.3941,54.6016Z"/>
          <path class="cls-4" d="M94.6846,68.1309c9.227-27.5947,24.0068-32.4072,24.0068-32.4072s12.7725,26.3496-15.2866,42.4228Z"/>
          <path class="cls-3" d="M63.4399,65.458c-7.1655-29.0507-30.791-39.2197-30.791-39.2197S15.7617,70.3262,48.0444,80.8399Z"/>
          <path class="cls-4" d="M59.9936,68.1309C50.7632,40.5362,35.9844,35.7237,35.9844,35.7237S23.2129,62.0733,51.272,78.1465Z"/>
        </g>
        <path class="cls-5" d="M77.3213,57.9395v.001l.0351-.001Z"/>
        <path class="cls-6" d="M77.3916,57.9395h-.0352l.0352.001Z"/>
        <path class="cls-7" d="M113.0146,93.4815a35.5394,35.5394,0,0,0-35.476-35.5391v-.0029l-.0337.001-.0342-.001v.0029h-.0986v-.0029l-.0337.001-.0347-.001v.0029A35.53981,35.53981,0,0,0,41.8276,93.4815c0,.4638-8.5405,10.0967-2.7055,21.6035,3.2265,6.3623,21.0302,13.1611,37.9941,13.3477,17.9854.1982,35.1821-6.6016,38.604-13.3477C121.5547,103.5782,113.0146,93.9453,113.0146,93.4815Z"/>
        <g>
          <path class="cls-8" d="M86.312,87.8418a5.451,5.451,0,1,0,5.4522-5.4511A5.45212,5.45212,0,0,0,86.312,87.8418Z"/>
          <path class="cls-9" d="M90.5347,83.5606a2.8623,2.8623,0,1,0,2.8637-2.8613A2.86218,2.86218,0,0,0,90.5347,83.5606Z"/>
        </g>
        <g>
          <path class="cls-8" d="M70.1953,87.8418a5.44875,5.44875,0,1,1-5.4477-5.4511A5.44866,5.44866,0,0,1,70.1953,87.8418Z"/>
          <path class="cls-9" d="M65.9746,83.5606a2.86155,2.86155,0,1,1-2.8623-2.8613A2.86092,2.86092,0,0,1,65.9746,83.5606Z"/>
        </g>
        <path class="cls-1" d="M113.0146,93.4815a35.5394,35.5394,0,0,0-35.476-35.5391v-.0029l-.0337.001-.0342-.001v.0029h-.0986v-.0029l-.0337.001-.0347-.001v.0029A35.53981,35.53981,0,0,0,41.8276,93.4815c0,.4638-8.5405,10.0967-2.7055,21.6035,3.2265,6.3623,21.0302,13.1611,37.9941,13.3477,17.9854.1982,35.1821-6.6016,38.604-13.3477C121.5547,103.5782,113.0146,93.9453,113.0146,93.4815Z"/>
        <g>
          <path class="cls-8" d="M86.6406,111.8418c0,3.3526-3.9131,7.5264-8.7383,7.5264-4.8281,0-8.7382-4.1738-8.7382-7.5264,0-3.3506,3.9101-6.0683,8.7382-6.0683C82.7275,105.7735,86.6406,108.4912,86.6406,111.8418Z"/>
          <path class="cls-9" d="M83.5942,110.0274c-.2026.8047-1.3965,1.1933-2.6631.8721-1.2661-.3213-2.1284-1.2344-1.9257-2.0401.205-.8047,1.3994-1.1933,2.6655-.8721C82.9375,108.3106,83.7988,109.2217,83.5942,110.0274Z"/>
        </g>
        <g class="cls-10">
          <path class="cls-4" d="M70.4087,131.7539c-2.8506,3.6573-13.9199-.1943-24.7256-8.6093-10.8057-8.4131-17.2568-18.2022-14.4072-21.8623,2.8486-3.6592,13.9218.1963,24.7251,8.6084C66.8091,118.3057,73.2583,128.0918,70.4087,131.7539Z"/>
          <path class="cls-4" d="M84.6167,130.2852c2.8345,3.458,14.146-.3633,25.2627-8.5361,11.1172-8.17,17.8315-17.5977,14.9975-21.0577-2.8349-3.457-14.1479.3653-25.2646,8.5352C88.4971,117.3995,81.7822,126.8252,84.6167,130.2852Z"/>
        </g>
      </g>
    </g>
  </g>
</svg>
