<svg xmlns="http://www.w3.org/2000/svg" viewBox="0 0 154.67529 154.6758">
  <defs>
    <style>
      .cls-1 {
        fill: #62a5a2;
      }

      .cls-2 {
        fill: #8a603c;
      }

      .cls-3 {
        fill: #f3dbbd;
      }

      .cls-4 {
        fill: #966a4d;
      }

      .cls-5 {
        fill: #313439;
      }

      .cls-6 {
        fill: #3b3e43;
      }

      .cls-7 {
        fill: #fff;
      }
    </style>
  </defs>
  <title>Fichier 12</title>
  <g id="Calque_2" data-name="Calque 2">
    <g id="background">
      <path class="cls-1" d="M154.67529,77.3389A77.33765,77.33765,0,1,1,77.33789,0,77.33776,77.33776,0,0,1,154.67529,77.3389Z"/>
    </g>
    <g id="object">
      <g>
        <g>
          <g>
            <path class="cls-2" d="M87.54149,46.4033c-3.5278,15.917-2.1196,29.7657,3.1421,30.9307,5.2632,1.166,12.3877-10.792,15.9155-26.707C110.126,34.71,103.456,19.6953,103.456,19.6953S91.06739,30.4863,87.54149,46.4033Z"/>
            <path class="cls-3" d="M91.17769,46.9873C88.62649,58.5,88.645,68.5156,92.44969,69.3604c3.8076.8427,7.9614-7.8067,10.5117-19.3184,2.5513-11.5117-1.27339-22.3711-1.27339-22.3711A42.86053,42.86053,0,0,0,91.17769,46.9873Z"/>
          </g>
          <g>
            <path class="cls-2" d="M67.13429,46.4033c3.5273,15.917,2.1206,29.7657-3.1421,30.9307C58.73,78.5,51.60449,66.542,48.07669,50.627c-3.5259-15.917,3.143-30.9317,3.143-30.9317S63.60839,30.4863,67.13429,46.4033Z"/>
            <path class="cls-3" d="M63.498,46.9873C66.04929,58.5,66.03119,68.5156,62.22459,69.3604c-3.8071.8427-7.96-7.8067-10.5107-19.3184-2.5503-11.5117,1.2724-22.3711,1.2724-22.3711A42.86005,42.86005,0,0,1,63.498,46.9873Z"/>
          </g>
        </g>
        <path class="cls-4" d="M108.23089,92.6084c1.3619-22.1484-12.9555-38.9033-30.8935-39.1709-17.9365.2676-32.2549,17.0225-30.8916,39.1709.5469,8.9014-2.1567,17.794-2.1567,25.0488s7.1611,14.586,32.3032,14.586c.2524,0,.4985-.003.7451-.0049.248.0019.4941.0049.74561.0049,25.14309,0,32.30369-7.3311,32.30369-14.586S107.68159,101.5098,108.23089,92.6084Z"/>
        <path class="cls-5" d="M77.80809,100.4883c-.1563,0-.3135.0019-.4707.0029-.1567-.001-.3135-.0029-.4707-.0029-17.99169,0-32.5762,7.7217-32.5762,17.2461,0,9.5254,14.58451,17.2461,32.5762,17.2461.1572,0,.314-.002.4707-.0029.1572.0009.3144.0029.4707.0029,17.9912,0,32.5767-7.7207,32.5767-17.2461C110.38479,108.21,95.79929,100.4883,77.80809,100.4883Z"/>
        <g>
          <path class="cls-6" d="M85.35589,84.7608a4.3799,4.3799,0,1,0,4.3804-4.3809A4.3802,4.3802,0,0,0,85.35589,84.7608Z"/>
          <path class="cls-7" d="M89.43259,81.2324A2.79785,2.79785,0,1,0,92.23,78.4336,2.79838,2.79838,0,0,0,89.43259,81.2324Z"/>
        </g>
        <path class="cls-3" d="M84.80759,113.749a4.38085,4.38085,0,1,0,4.38041-4.3808A4.37931,4.37931,0,0,0,84.80759,113.749Z"/>
        <g>
          <path class="cls-6" d="M69.31979,84.7608a4.38035,4.38035,0,1,1-4.3799-4.3809A4.37971,4.37971,0,0,1,69.31979,84.7608Z"/>
          <path class="cls-7" d="M65.24459,81.2324a2.79955,2.79955,0,1,1-2.7988-2.7988A2.80021,2.80021,0,0,1,65.24459,81.2324Z"/>
        </g>
        <path class="cls-3" d="M69.86669,113.749a4.3804,4.3804,0,1,1-4.3794-4.3808A4.37941,4.37941,0,0,1,69.86669,113.749Z"/>
      </g>
    </g>
  </g>
</svg>
