<svg xmlns="http://www.w3.org/2000/svg" viewBox="0 0 154.67579 154.6757">
  <defs>
    <style>
      .cls-1 {
        fill: #195889;
      }

      .cls-2 {
        fill: #7b5836;
      }

      .cls-3 {
        fill: #f3dbbd;
      }

      .cls-4 {
        fill: #8b613c;
      }

      .cls-5 {
        fill: #d1bea6;
      }

      .cls-6 {
        fill: #3d342f;
      }

      .cls-7 {
        fill: #fff;
      }
    </style>
  </defs>
  <title>Fichier 1</title>
  <g id="Calque_2" data-name="Calque 2">
    <g id="Calque_1-2" data-name="Calque 1">
      <circle class="cls-1" cx="77.3379" cy="77.33788" r="77.33782" transform="translate(-11.78617 140.73502) rotate(-80.4256)"/>
      <g>
        <g>
          <path class="cls-2" d="M138.3677,75.2924a14.93655,14.93655,0,1,1-14.9366-14.9365A14.93627,14.93627,0,0,1,138.3677,75.2924Z"/>
          <path class="cls-3" d="M133.0049,75.2924a9.57445,9.57445,0,1,1-9.5738-9.5747A9.57277,9.57277,0,0,1,133.0049,75.2924Z"/>
        </g>
        <g>
          <path class="cls-2" d="M46.1807,73.3823A14.93605,14.93605,0,1,1,31.2451,58.4458,14.93633,14.93633,0,0,1,46.1807,73.3823Z"/>
          <path class="cls-3" d="M40.8198,73.3823a9.5747,9.5747,0,1,1-9.5747-9.5752A9.57463,9.57463,0,0,1,40.8198,73.3823Z"/>
        </g>
        <path class="cls-4" d="M123.9165,77.1865A46.91555,46.91555,0,1,1,77.0005,30.271,46.916,46.916,0,0,1,123.9165,77.1865Z"/>
        <path class="cls-3" d="M116.706,73.6845a20.43207,20.43207,0,0,0-39.5996-7.1499A20.43144,20.43144,0,1,0,57.8037,93.8911c.3115,0,.6201-.0078.9287-.0205a28.92456,28.92456,0,0,0-2.082,10.1074,20.4287,20.4287,0,0,0,40.8574,0,31.71347,31.71347,0,0,0-1.7974-9.9561c.1626.0044.3247.0137.4883.0137A20.42959,20.42959,0,0,0,116.706,73.6845Z"/>
        <g>
          <path class="cls-5" d="M85.5435,74.1865A10.5532,10.5532,0,1,0,96.0976,63.6333,10.55229,10.55229,0,0,0,85.5435,74.1865Z"/>
          <g>
            <path class="cls-6" d="M89.3916,74.2724a6.2783,6.2783,0,1,0,6.2778-6.2788A6.27735,6.27735,0,0,0,89.3916,74.2724Z"/>
            <path class="cls-7" d="M94.7734,69.0903a2.98975,2.98975,0,1,0,2.9883-2.9897A2.98818,2.98818,0,0,0,94.7734,69.0903Z"/>
          </g>
        </g>
        <g>
          <path class="cls-5" d="M68.8164,74.1865A10.5532,10.5532,0,1,1,58.2642,63.6333,10.55067,10.55067,0,0,1,68.8164,74.1865Z"/>
          <g>
            <path class="cls-6" d="M64.9692,74.2724a6.2783,6.2783,0,1,1-6.2778-6.2788A6.27767,6.27767,0,0,1,64.9692,74.2724Z"/>
            <path class="cls-7" d="M59.5874,69.0903a2.98925,2.98925,0,1,1-2.9883-2.9897A2.98818,2.98818,0,0,1,59.5874,69.0903Z"/>
          </g>
        </g>
        <path class="cls-6" d="M81.6108,108.3999a4.03735,4.03735,0,1,1-4.0381-4.0376A4.03748,4.03748,0,0,1,81.6108,108.3999Z"/>
      </g>
    </g>
  </g>
</svg>
