<?xml version="1.0" encoding="UTF-8" standalone="no"?>
<svg
   xmlns:dc="http://purl.org/dc/elements/1.1/"
   xmlns:cc="http://creativecommons.org/ns#"
   xmlns:rdf="http://www.w3.org/1999/02/22-rdf-syntax-ns#"
   xmlns:svg="http://www.w3.org/2000/svg"
   xmlns="http://www.w3.org/2000/svg"
   xmlns:sodipodi="http://sodipodi.sourceforge.net/DTD/sodipodi-0.dtd"
   xmlns:inkscape="http://www.inkscape.org/namespaces/inkscape"
   inkscape:version="1.0 (4035a4fb49, 2020-05-01)"
   sodipodi:docname="mouse.svg"
   id="svg284"
   version="1.1"
   viewBox="0 0 154.67581 159.0239">
  <metadata
     id="metadata288">
    <rdf:RDF>
      <cc:Work
         rdf:about="">
        <dc:format>image/svg+xml</dc:format>
        <dc:type
           rdf:resource="http://purl.org/dc/dcmitype/StillImage" />
      </cc:Work>
    </rdf:RDF>
  </metadata>
  <sodipodi:namedview
     inkscape:current-layer="svg284"
     inkscape:window-maximized="0"
     inkscape:window-y="0"
     inkscape:window-x="0"
     inkscape:cy="85.050232"
     inkscape:cx="77.337906"
     inkscape:zoom="5.2759367"
     showgrid="false"
     id="namedview286"
     inkscape:window-height="1030"
     inkscape:window-width="960"
     inkscape:pageshadow="2"
     inkscape:pageopacity="0"
     guidetolerance="10"
     gridtolerance="10"
     objecttolerance="10"
     borderopacity="1"
     bordercolor="#666666"
     pagecolor="#ffffff" />
  <defs
     id="defs203">
    <style
       id="style198">
      .cls-1, .cls-10 {
        fill: none;
      }

      .cls-2 {
        fill: #62a5a2;
      }

      .cls-3 {
        fill: #ea692b;
      }

      .cls-4 {
        fill: #e39335;
      }

      .cls-5 {
        fill: #8a603c;
      }

      .cls-6 {
        clip-path: url(#clip-path);
      }

      .cls-7 {
        fill: #f3dbbd;
      }

      .cls-8 {
        fill: #3b3e43;
      }

      .cls-9 {
        fill: #fff;
      }

      .cls-10 {
        stroke: #3d342f;
        stroke-linecap: round;
        stroke-miterlimit: 10;
        stroke-width: 2px;
      }
    </style>
    <clipPath
       id="clip-path">
      <path
         id="path200"
         d="M109.4581,79.08c-4.7354-24.6088-11.9415-31.2485-32.461-31.2485-.0918,0-.1826.0034-.2724.0039-.09089-.0005-.1807-.0039-.2715-.0039-20.5196,0-27.7276,6.6397-32.4619,31.2485-7.1006,9.7652-6.0508,39.5249,31.10151,39.5249.55179,0,1.09279-.0048,1.63189-.0131.53711.0083,1.07911.0131,1.6318.0131C115.50981,118.6049,116.5586,88.8452,109.4581,79.08Z"
         class="cls-1" />
    </clipPath>
  </defs>
  <title
     id="title205">Fichier 2</title>
  <g
     data-name="Calque 2"
     id="Calque_2">
    <g
       id="background">
      <g
         id="g328">
        <path
           class="cls-2"
           d="M154.67581,77.3379A77.33791,77.33791,0,1,1,77.3389,0,77.33779,77.33779,0,0,1,154.67581,77.3379Z"
           id="path207" />
      </g>
    </g>
    <g
       id="object">
      <g
         id="g280">
        <path
           id="path210"
           d="M133.9805,79.477c0,31.2822-26.7256,52.3662-56.4121,52.3662s-56.874-21.084-56.874-52.3662a56.64305,56.64305,0,1,1,113.2861,0Z"
           class="cls-3" />
        <g
           id="g216">
          <path
             id="path212"
             d="M70.8721,55.0014A16.01465,16.01465,0,1,1,54.8584,38.9868,16.01529,16.01529,0,0,1,70.8721,55.0014Z"
             class="cls-4" />
          <path
             id="path214"
             d="M64.46781,55.0014a9.60986,9.60986,0,1,1-9.60941-9.6093A9.60878,9.60878,0,0,1,64.46781,55.0014Z"
             class="cls-5" />
        </g>
        <g
           id="g222">
          <path
             id="path218"
             d="M82.5752,55.0014A16.01465,16.01465,0,1,0,98.5889,38.9868,16.01593,16.01593,0,0,0,82.5752,55.0014Z"
             class="cls-4" />
          <path
             id="path220"
             d="M88.9815,55.0014a9.60935,9.60935,0,1,0,9.6074-9.6093A9.60834,9.60834,0,0,0,88.9815,55.0014Z"
             class="cls-5" />
        </g>
        <path
           id="path224"
           d="M109.4581,80.2441C104.7227,56.3593,97.5166,49.915,76.9971,49.915c-.0918,0-.1826.0029-.2724.0029-.09089,0-.1807-.0029-.2715-.0029-20.5196,0-27.7276,6.4443-32.4619,30.3291-7.1006,9.4766-6.0508,38.3608,31.10151,38.3608.55179,0,1.09279-.0048,1.63189-.0131.53711.0083,1.07911.0131,1.6318.0131C115.50981,118.6049,116.5586,89.7207,109.4581,80.2441Z"
           class="cls-4" />
        <g
           id="g228"
           clip-path="url(#clip-path)"
           class="cls-6">
          <path
             id="path226"
             d="M118.4805,126.9946c0,17.689-17.2441,32.0293-41.4043,32.0293-24.1611,0-41.4053-14.3403-41.4053-32.0293,0-17.6895,17.2442-37.8887,41.4053-37.8887C101.2364,89.1059,118.4805,109.3051,118.4805,126.9946Z"
             class="cls-7" />
        </g>
        <g
           id="g262">
          <g
             id="g238">
            <path
               id="path230"
               d="M65.8692,76.9306a6.30715,6.30715,0,1,1-6.3057-6.3091A6.30567,6.30567,0,0,1,65.8692,76.9306Z"
               class="cls-5" />
            <g
               id="g236">
              <path
                 id="path232"
                 d="M62.7559,76.9839a3.19285,3.19285,0,1,1-3.1924-3.1934A3.19214,3.19214,0,0,1,62.7559,76.9839Z"
                 class="cls-8" />
              <path
                 id="path234"
                 d="M60.2803,74.4756a1.67575,1.67575,0,1,1-1.6758-1.6773A1.67446,1.67446,0,0,1,60.2803,74.4756Z"
                 class="cls-9" />
            </g>
          </g>
          <g
             id="g250">
            <path
               id="path240"
               d="M85.1622,91.604c0,2.9214-3.4102,5.3867-7.6163,5.3867-4.208,0-7.61809-2.4653-7.61809-5.3867s3.41009-5.2896,7.61809-5.2896C81.752,86.3144,85.1622,88.6826,85.1622,91.604Z"
               class="cls-8" />
            <g
               id="g246">
              <path
                 id="path242"
                 d="M69.6045,107.1006c-2.0898,0-4.4043-1.0298-6.9082-3.0801a.78109.78109,0,1,1,.9893-1.209c2.9287,2.3975,5.4531,3.2183,7.5,2.439,4.07621-1.5508,5.28321-8.8457,5.2939-8.92a.78171.78171,0,0,1,1.544.2456c-.05469.3365-1.3692,8.2666-6.2832,10.1358A5.97572,5.97572,0,0,1,69.6045,107.1006Z"
                 class="cls-8" />
              <path
                 id="path244"
                 d="M84.1075,107.7861a4.93957,4.93957,0,0,1-1.8545-.3555c-4.6719-1.8701-5.5479-10.5351-5.584-10.9033a.78138.78138,0,0,1,1.5557-.1484c.2148,2.2446,1.4638,8.3442,4.6074,9.602,1.7275.6905,3.9258-.1089,6.5381-2.373a.781.781,0,0,1,1.0244,1.1792C88.09281,106.7822,85.9883,107.7861,84.1075,107.7861Z"
                 class="cls-8" />
            </g>
            <path
               id="path248"
               d="M82.5059,90.0195c-.1797.7007-1.2168,1.041-2.3203.7603-1.1055-.2798-1.8555-1.0752-1.6787-1.7759.1806-.7012,1.2178-1.042,2.3222-.7608S82.6846,89.3183,82.5059,90.0195Z"
               class="cls-9" />
          </g>
          <g
             id="g260">
            <path
               id="path252"
               d="M87.5782,76.9306a6.3076,6.3076,0,1,0,6.30661-6.3091A6.3058,6.3058,0,0,0,87.5782,76.9306Z"
               class="cls-5" />
            <g
               id="g258">
              <path
                 id="path254"
                 d="M90.6934,76.9839a3.1924,3.1924,0,1,0,3.19141-3.1934A3.19193,3.19193,0,0,0,90.6934,76.9839Z"
                 class="cls-8" />
              <path
                 id="path256"
                 d="M93.167,74.4756a1.6768,1.6768,0,1,0,1.67681-1.6773A1.67532,1.67532,0,0,0,93.167,74.4756Z"
                 class="cls-9" />
            </g>
          </g>
        </g>
        <g
           id="g270">
          <path
             id="path264"
             d="M61.919,93.893s-8.5449-5.3989-32.0625-5.8442"
             class="cls-10" />
          <path
             id="path266"
             d="M60.8301,96.4262s-10.0576-3.4184-33.2197.9546"
             class="cls-10" />
          <path
             id="path268"
             d="M60.7373,99.4238s-10.8564-1.4731-32.4453,6.9404"
             class="cls-10" />
        </g>
        <g
           id="g278">
          <path
             id="path272"
             d="M92.3204,94.6748s8.5449-5.399,32.0625-5.8457"
             class="cls-10" />
          <path
             id="path274"
             d="M93.4102,97.2065s10.05761-3.418,33.2197.9556"
             class="cls-10" />
          <path
             id="path276"
             d="M93.503,100.2055s10.8554-1.4741,32.4443,6.94"
             class="cls-10" />
        </g>
      </g>
    </g>
  </g>
</svg>
