<svg xmlns="http://www.w3.org/2000/svg" viewBox="0 0 154.67581 154.6757">
  <defs>
    <style>
      .cls-1 {
        fill: #d8d423;
      }

      .cls-2 {
        fill: #313439;
      }

      .cls-3 {
        fill: #f7f1e6;
      }

      .cls-4 {
        fill: #3b3e43;
      }

      .cls-5 {
        fill: #fff;
      }
    </style>
  </defs>
  <title>Fichier 10</title>
  <g id="Calque_2" data-name="Calque 2">
    <g id="background">
      <path class="cls-1" d="M154.67581,77.3388A77.33791,77.33791,0,1,1,77.3389,0,77.337,77.337,0,0,1,154.67581,77.3388Z"/>
    </g>
    <g id="object">
      <g>
        <circle class="cls-2" cx="43.04007" cy="48.13373" r="20.00689" transform="translate(-21.42954 44.53197) rotate(-45)"/>
        <path class="cls-2" d="M131.6416,48.1337a20.0068,20.0068,0,1,1-20.00779-20.0068A20.00844,20.00844,0,0,1,131.6416,48.1337Z"/>
        <path class="cls-3" d="M125.8809,81.5214c5.46,23.9141,0,45.0274-48.3135,45.0274S27.2491,107.8164,32.1573,81.5214C36.8467,56.3935,50.88381,37.288,77.5674,37.288S120.1866,56.5839,125.8809,81.5214Z"/>
        <path class="cls-4" d="M89.6934,87.2646c2.5713,8.6328,13.167,10.0498,19.1357,6.2627,5.9678-3.7881,7.0762-12.7344,2.4766-19.9805-4.5976-7.247-13.1641-10.0517-19.1328-6.2636C86.2051,71.0712,87.2452,79.0371,89.6934,87.2646Z"/>
        <path class="cls-4" d="M87.7061,99.6709c0,3.289-3.8379,7.3837-8.5742,7.3837s-8.5742-4.0947-8.5742-7.3837c0-3.2872,3.8379-5.9551,8.5742-5.9551S87.7061,96.3837,87.7061,99.6709Z"/>
        <g>
          <path class="cls-4" d="M70.1924,117.1162c-2.3525,0-4.9551-1.1592-7.7763-3.4678a.87891.87891,0,1,1,1.1132-1.3604c3.2979,2.6983,6.1397,3.6221,8.4424,2.7461,4.5899-1.7461,5.9492-9.9599,5.961-10.042a.87994.87994,0,0,1,1.7382.2754c-.0605.3799-1.5429,9.3067-7.0742,11.4102A6.69282,6.69282,0,0,1,70.1924,117.1162Z"/>
          <path class="cls-4" d="M86.5186,117.8877a5.56478,5.56478,0,0,1-2.0879-.4004c-5.2598-2.1045-6.2441-11.8584-6.2842-12.2735a.879.879,0,0,1,1.75-.167c.2432,2.5264,1.6485,9.3926,5.1895,10.8086,1.9424.7764,4.4179-.122,7.3584-2.6728a.87991.87991,0,0,1,1.1523,1.3301C91.0059,116.7578,88.63481,117.8877,86.5186,117.8877Z"/>
        </g>
        <g>
          <path class="cls-5" d="M93.8682,81.4316a7.1006,7.1006,0,1,0,7.09961-7.1006A7.09866,7.09866,0,0,0,93.8682,81.4316Z"/>
          <g>
            <path class="cls-4" d="M97.3741,81.4921a3.59375,3.59375,0,1,0,3.59371-3.5937A3.59423,3.59423,0,0,0,97.3741,81.4921Z"/>
            <path class="cls-5" d="M100.1592,78.6679a1.88675,1.88675,0,1,0,1.8867-1.8867A1.88633,1.88633,0,0,0,100.1592,78.6679Z"/>
          </g>
        </g>
        <path class="cls-4" d="M70.2842,85.6523c-2.5722,8.6338-13.166,10.0498-19.1338,6.2617-5.9677-3.7871-7.0781-12.7324-2.4795-19.9785,4.6006-7.248,13.168-10.0508,19.1348-6.2637C73.7735,69.4609,72.7334,77.4257,70.2842,85.6523Z"/>
        <g>
          <path class="cls-5" d="M66.42881,79.6347a7.10061,7.10061,0,1,1-7.09971-7.1015A7.1,7.1,0,0,1,66.42881,79.6347Z"/>
          <g>
            <path class="cls-4" d="M62.9229,79.6953a3.59375,3.59375,0,1,1-3.5938-3.5957A3.59365,3.59365,0,0,1,62.9229,79.6953Z"/>
            <path class="cls-5" d="M60.1377,76.8711a1.8867,1.8867,0,1,1-1.8867-1.8877A1.88625,1.88625,0,0,1,60.1377,76.8711Z"/>
          </g>
        </g>
        <path class="cls-5" d="M84.71781,97.8877c-.20211.79-1.37211,1.1718-2.61421.8564-1.2432-.3164-2.0889-1.2109-1.8877-2,.2011-.79,1.3701-1.1729,2.6142-.8564C84.0713,96.2041,84.917,97.0986,84.71781,97.8877Z"/>
      </g>
    </g>
  </g>
</svg>
