<svg xmlns="http://www.w3.org/2000/svg" viewBox="0 0 154.67581 154.6758">
  <defs>
    <style>
      .cls-1 {
        fill: #185787;
      }

      .cls-2 {
        fill: #f7a99b;
      }

      .cls-3 {
        fill: #d69488;
      }

      .cls-4 {
        fill: #3d342f;
      }

      .cls-5 {
        fill: #fff;
      }
    </style>
  </defs>
  <title>Fichier 6</title>
  <g id="Calque_2" data-name="Calque 2">
    <g id="background">
      <path class="cls-1" d="M154.67581,77.3379A77.33791,77.33791,0,1,1,77.3389,0,77.33755,77.33755,0,0,1,154.67581,77.3379Z"/>
    </g>
    <g id="object">
      <g>
        <path class="cls-2" d="M123.4102,81.5494c0,22.7099-20.5762,41.1201-45.958,41.1201s-45.96-18.4102-45.96-41.1201c0-22.7095,20.5782-41.1202,45.96-41.1202S123.4102,58.8399,123.4102,81.5494Z"/>
        <path class="cls-3" d="M101.6397,99.1265c0,8.5493-10.6123,15.481-23.7041,15.481-13.09279,0-23.7041-6.9317-23.7041-15.481s10.61131-15.48,23.7041-15.48C91.0274,83.6465,101.6397,90.5772,101.6397,99.1265Z"/>
        <g>
          <path class="cls-3" d="M85.709,72.1993a8.50635,8.50635,0,1,0,8.5059-8.5069A8.50626,8.50626,0,0,0,85.709,72.1993Z"/>
          <g>
            <path class="cls-4" d="M88.8096,72.2686a5.06055,5.06055,0,1,0,5.0606-5.0615A5.06042,5.06042,0,0,0,88.8096,72.2686Z"/>
            <path class="cls-5" d="M93.1475,68.0909a2.41016,2.41016,0,1,0,2.4092-2.4102A2.40967,2.40967,0,0,0,93.1475,68.0909Z"/>
          </g>
        </g>
        <g>
          <path class="cls-3" d="M72.2247,72.1993a8.50685,8.50685,0,1,1-8.5088-8.5069A8.50752,8.50752,0,0,1,72.2247,72.1993Z"/>
          <g>
            <path class="cls-4" d="M69.1221,72.2686a5.06055,5.06055,0,1,1-5.0596-5.0615A5.06021,5.06021,0,0,1,69.1221,72.2686Z"/>
            <path class="cls-5" d="M64.7832,68.0909a2.40915,2.40915,0,1,1-2.4082-2.4102A2.40881,2.40881,0,0,1,64.7832,68.0909Z"/>
          </g>
        </g>
        <path class="cls-4" d="M73.8194,99.4483a4.27345,4.27345,0,1,1-4.2735-4.2735A4.27364,4.27364,0,0,1,73.8194,99.4483Z"/>
        <path class="cls-4" d="M91.4522,99.6631a4.274,4.274,0,1,1-4.27339-4.2729A4.27461,4.27461,0,0,1,91.4522,99.6631Z"/>
        <g>
          <path class="cls-2" d="M123.0176,59.5352a14.21758,14.21758,0,1,1-18.9863-21.1411c6.06251-5.4424,27.7461-7.1607,28.7158-6.0835C133.7149,33.3892,129.0791,54.0918,123.0176,59.5352Z"/>
          <path class="cls-3" d="M120.9229,55.5669a9.862,9.862,0,1,1-13.169-14.665c4.2042-3.7754,19.2461-4.9678,19.918-4.2192C128.34381,37.4297,125.127,51.7915,120.9229,55.5669Z"/>
        </g>
        <g>
          <path class="cls-2" d="M31.6573,59.5352A14.217,14.217,0,1,0,50.6416,38.3941c-6.0605-5.4424-27.7451-7.1607-28.71279-6.0835C20.96,33.3892,25.5957,54.0918,31.6573,59.5352Z"/>
          <path class="cls-3" d="M33.752,55.5669a9.86252,9.86252,0,1,0,13.1709-14.665c-4.20609-3.7754-19.25-4.9678-19.9199-4.2192C26.3301,37.4297,29.5469,51.7915,33.752,55.5669Z"/>
        </g>
      </g>
    </g>
  </g>
</svg>
