<svg xmlns="http://www.w3.org/2000/svg" viewBox="0 0 154.6758 154.6757">
  <defs>
    <style>
      .cls-1 {
        fill: #d8d423;
      }

      .cls-2 {
        fill: #e0dcd3;
      }

      .cls-3 {
        fill: #bab7b0;
      }

      .cls-4 {
        fill: #fff;
      }

      .cls-5 {
        fill: #3b3e43;
      }
    </style>
  </defs>
  <title>Fichier 1</title>
  <g id="Calque_2" data-name="Calque 2">
    <g id="background">
      <path class="cls-1" d="M154.6758,77.3379A77.3379,77.3379,0,1,1,77.3369,0,77.33821,77.33821,0,0,1,154.6758,77.3379Z"/>
    </g>
    <g id="object">
      <g>
        <path class="cls-2" d="M127.9707,75.0088c19.8291,36.6669-8.3145,48.5107-53.9766,48.5107-52.0117,0-61.6084-14.7163-48.4062-48.9204C36.916,45.247,57,41.6421,75.0234,41.6421,93.0459,41.6421,113.7207,48.6591,127.9707,75.0088Z"/>
        <g>
          <path class="cls-3" d="M124.2627,101.1186c-4.6992,7.7949-17.1553,9.9131-31.8311,11.4571-7.7949-4.6963-9.3476-32.4288-7.4267-41.3243,2.0615-9.5258,11.5029-16.8213,24.0752-6.9028C116.2265,69.9839,128.9599,93.3247,124.2627,101.1186Z"/>
          <path class="cls-3" d="M30.2617,102.4062c4.6963,7.7949,23.7187,10.0425,33.1152,11.0713,7.7969-4.6963,10.6016-31.5405,8.11141-43.6411-1.83211-8.9146-15.31841-18.5391-27.42-5.2788S25.5625,94.6123,30.2617,102.4062Z"/>
        </g>
        <g>
          <g>
            <path class="cls-4" d="M93.3496,79.0234a8.3154,8.3154,0,1,0,8.3164-8.3154A8.31583,8.31583,0,0,0,93.3496,79.0234Z"/>
            <g>
              <path class="cls-5" d="M97.457,79.0937a4.2085,4.2085,0,1,0,4.209-4.208A4.20744,4.20744,0,0,0,97.457,79.0937Z"/>
              <path class="cls-4" d="M100.7178,75.7876a2.21045,2.21045,0,1,0,2.2099-2.21A2.20932,2.20932,0,0,0,100.7178,75.7876Z"/>
            </g>
          </g>
          <g>
            <path class="cls-4" d="M61.2158,76.9184a8.31545,8.31545,0,1,1-8.3154-8.3159A8.31557,8.31557,0,0,1,61.2158,76.9184Z"/>
            <g>
              <path class="cls-5" d="M57.1094,76.9897a4.209,4.209,0,1,1-4.209-4.2095A4.208,4.208,0,0,1,57.1094,76.9897Z"/>
              <path class="cls-4" d="M53.8496,73.6831a2.21045,2.21045,0,1,1-2.2119-2.2115A2.21,2.21,0,0,1,53.8496,73.6831Z"/>
            </g>
          </g>
        </g>
        <path class="cls-4" d="M104.332,103.6948c0,8.5312-16.0039,15.4473-29.832,15.4473s-25.0371-6.9161-25.0371-15.4473c0-8.5327,11.209-15.4497,25.0371-15.4497S104.332,95.1621,104.332,103.6948Z"/>
        <g>
          <path class="cls-5" d="M87.2851,102.666c0,3.9858-4.6523,8.9463-10.3886,8.9463-5.7373,0-10.3868-4.9605-10.3868-8.9463,0-3.9839,4.6495-7.2139,10.3868-7.2139C82.6328,95.4521,87.2851,98.6821,87.2851,102.666Z"/>
          <path class="cls-4" d="M83.6631,100.5063c-.2422.9566-1.6602,1.4209-3.167,1.0376-1.5049-.3828-2.5283-1.4673-2.2871-2.4233.2441-.9566,1.6621-1.4199,3.1679-1.0376C82.8828,98.4658,83.9062,99.5503,83.6631,100.5063Z"/>
        </g>
        <g>
          <g>
            <path class="cls-2" d="M35.8711,31.686c-7.55279,3.646.2754,27.8062.2754,27.8062L61.7314,44.4023S43.4258,28.0395,35.8711,31.686Z"/>
            <path class="cls-3" d="M38.9531,35.2246c-5.0742,2.4502.1875,18.6831.1875,18.6831L56.331,43.7695S44.02931,32.7739,38.9531,35.2246Z"/>
          </g>
          <g>
            <path class="cls-2" d="M118.69531,31.686c7.55179,3.646-.27641,27.8062-.27641,27.8062L92.8359,44.4023S111.1426,28.0395,118.69531,31.686Z"/>
            <path class="cls-3" d="M115.61131,35.2246c5.07619,2.4502-.18361,18.6831-.18361,18.6831L98.23631,43.7695S110.5381,32.7739,115.61131,35.2246Z"/>
          </g>
        </g>
      </g>
    </g>
  </g>
</svg>
