<svg xmlns="http://www.w3.org/2000/svg" xmlns:xlink="http://www.w3.org/1999/xlink" viewBox="0 0 154.67579 154.6758">
  <defs>
    <style>
      .cls-1 {
        fill: none;
      }

      .cls-2 {
        fill: #d8d423;
      }

      .cls-3 {
        fill: #e0dcd3;
      }

      .cls-4 {
        fill: #313439;
      }

      .cls-5 {
        fill: #f7f1e6;
      }

      .cls-6 {
        fill: #fff;
      }

      .cls-7 {
        clip-path: url(#clip-path);
      }
    </style>
    <clipPath id="clip-path">
      <path class="cls-1" d="M111.6636,90.7735c0,23.4277,6.0459,42.4189-34.3252,42.4189-40.3706,0-34.3262-18.9912-34.3262-42.4189s14.9375-42.42,34.3262-42.42C96.7266,48.3535,111.6636,67.3457,111.6636,90.7735Z"/>
    </clipPath>
  </defs>
  <title>Fichier 11</title>
  <g id="Calque_2" data-name="Calque 2">
    <g id="background">
      <path class="cls-2" d="M154.67579,77.3389A77.3379,77.3379,0,1,1,77.3379,0,77.3385,77.3385,0,0,1,154.67579,77.3389Z"/>
    </g>
    <g id="object">
      <g>
        <g>
          <path class="cls-3" d="M65.7256,41.7598c3.0547,13.7842,1.8369,25.7793-2.7212,26.789-4.5586,1.0098-10.7295-9.3466-13.7847-23.1328s-1.8369-25.7793,2.7217-26.79C56.5005,17.6172,62.6719,27.9727,65.7256,41.7598Z"/>
          <path class="cls-4" d="M63.9961,42.1416c2.4145,10.8955,1.4507,20.374-2.1519,21.1738-3.602.7979-8.4809-7.3877-10.8945-18.2822-2.4146-10.8955-1.4507-20.375,2.1514-21.1719C56.7041,23.0625,61.5806,31.2461,63.9961,42.1416Z"/>
        </g>
        <g>
          <path class="cls-3" d="M87.8359,41.7598c-3.0532,13.7842-1.8349,25.7793,2.7237,26.789,4.5576,1.0098,10.729-9.3466,13.7841-23.1328s1.8365-25.7793-2.7216-26.79C97.0625,17.6172,90.8921,27.9727,87.8359,41.7598Z"/>
          <path class="cls-4" d="M89.5688,42.1416c-2.4145,10.8955-1.4521,20.374,2.1499,21.1738,3.6026.7979,8.4805-7.3877,10.8941-18.2822,2.4145-10.8955,1.4512-20.375-2.1509-21.1719C96.8603,23.0625,91.9819,31.2461,89.5688,42.1416Z"/>
        </g>
        <path class="cls-5" d="M111.6636,90.7735c0,27.2705,9.4985,42.4189-34.3252,42.4189-43.8228,0-34.3262-17.7813-34.3262-42.4189,0-23.4278,14.9375-42.42,34.3262-42.42C96.7266,48.3535,111.6636,67.3457,111.6636,90.7735Z"/>
        <ellipse class="cls-4" cx="77.6313" cy="117.6875" rx="34.8125" ry="18.4307"/>
        <g>
          <path class="cls-4" d="M69.5649,82.4492a4.68065,4.68065,0,1,1-4.6811-4.6806A4.68142,4.68142,0,0,1,69.5649,82.4492Z"/>
          <path class="cls-6" d="M65.209,78.6787a2.99,2.99,0,1,1-2.9907-2.9902A2.98934,2.98934,0,0,1,65.209,78.6787Z"/>
        </g>
        <g>
          <path class="cls-4" d="M85.04,82.4492a4.68045,4.68045,0,1,0,4.6807-4.6806A4.68044,4.68044,0,0,0,85.04,82.4492Z"/>
          <path class="cls-6" d="M89.396,78.6777a2.99,2.99,0,1,0,2.9883-2.9892A2.98968,2.98968,0,0,0,89.396,78.6777Z"/>
        </g>
        <g class="cls-7">
          <g>
            <path class="cls-4" d="M121.9668,86.7402s-.0918.0918-.2583.2305c-.165.1279-.4126.3555-.7173.5674a13.51319,13.51319,0,0,1-2.478,1.416,13.20776,13.20776,0,0,1-3.3643.9756c-.3017.0459-.6064.0762-.914.1035-.3008.0235-.5787.0625-.8692.0742a11.67715,11.67715,0,0,1-1.7246-.0332,12.39239,12.39239,0,0,1-1.6997-.2978,9.9007,9.9007,0,0,1-1.606-.4033,11.72954,11.72954,0,0,1-1.539-.6436,16.24437,16.24437,0,0,1-1.5127-.7432,13.93415,13.93415,0,0,1-2.3135-1.6533c-.2827-.2422-.5088-.4922-.6616-.6367-.1538-.1553-.2368-.2559-.2368-.2559s.0732-.1084.2124-.2753c.1391-.1573.3423-.4268.6054-.6915a13.29555,13.29555,0,0,1,2.2115-1.8515,12.59193,12.59193,0,0,1,1.5112-.8672,13.49568,13.49568,0,0,1,1.8384-.6055,14.36506,14.36506,0,0,1,2.0053-.3613,15.59168,15.59168,0,0,1,2.0113.0654,15.85086,15.85086,0,0,1,1.9863.334c.3203.0772.6514.1641.9487.2637.2891.1103.5743.2236.8526.3506a13.26218,13.26218,0,0,1,2.978,1.8603,13.66944,13.66944,0,0,1,2.0078,2.042c.2363.2881.4141.5742.5391.7422C121.9033,86.627,121.9668,86.7402,121.9668,86.7402Z"/>
            <path class="cls-4" d="M113.0166,57.0811s-.0454.1259-.1421.331c-.1001.1934-.2339.5147-.4302.8496a14.62686,14.62686,0,0,1-1.7387,2.459c-.3916.4297-.8164.8848-1.2286,1.3194a14.37047,14.37047,0,0,1-1.3657,1.2275,17.4718,17.4718,0,0,1-1.5405,1.0635,14.92461,14.92461,0,0,1-1.7036.914,16.52066,16.52066,0,0,1-3.6558,1.1768,17.36917,17.36917,0,0,1-1.8471.2568c-.6045.0557-1.2212.0381-1.7808.0401a17.5336,17.5336,0,0,1-2.9507-.334c-.3813-.0694-.7143-.1758-.9263-.2207-.2187-.0557-.3466-.0987-.3466-.0987s.0156-.1318.0669-.3544c.0571-.2139.125-.5547.2539-.9258a11.25513,11.25513,0,0,1,.5083-1.2901,14.80389,14.80389,0,0,1,.8022-1.4756,13.29911,13.29911,0,0,1,1.1094-1.5078A12.95268,12.95268,0,0,1,97.5,59.082a15.306,15.306,0,0,1,1.6592-1.247,12.5,12.5,0,0,1,1.8574-1.0088,17.85284,17.85284,0,0,1,1.9814-.7412,12.43689,12.43689,0,0,1,2.0733-.4356,15.52863,15.52863,0,0,1,2.0283-.1396,8.98346,8.98346,0,0,1,1.8413.1709,14.61786,14.61786,0,0,1,2.8921.8349c.3623.1397.6675.3077.8672.3965C112.9028,57.0117,113.0166,57.0811,113.0166,57.0811Z"/>
            <path class="cls-4" d="M123.1357,108.583s-.1469.0215-.4028.0342c-.2485.001-.6411.0449-1.085.0469-.455.0127-.9663-.001-1.5522-.0215-.5903-.0215-1.2295-.0733-1.8999-.1563-.6577-.1015-1.3857-.1806-2.1074-.3281-.7271-.1387-1.4556-.3369-2.2002-.5478a19.90033,19.90033,0,0,1-2.2412-.7286c-.3682-.1455-.7373-.2949-1.0977-.4638-.3686-.1514-.7368-.3037-1.1011-.4658a22.35963,22.35963,0,0,1-2.1137-1.1026c-.6748-.4238-1.3496-.7978-1.9869-1.2236a20.402,20.402,0,0,1-1.8081-1.3516c-.2832-.2373-.5576-.4765-.8188-.7246-.2661-.2314-.5303-.4365-.7769-.6631a20.81425,20.81425,0,0,1-2.372-2.5175c-.2857-.3477-.4995-.6817-.6529-.8829-.1504-.2128-.2275-.3437-.2275-.3437s.126-.0713.3569-.1729c.2285-.0908.5743-.2597,1.001-.3994a17.14068,17.14068,0,0,1,3.5303-.7949c.3638-.0469.7363-.0703,1.1279-.1035.3794-.0059.7686.0058,1.167.0264a22.97387,22.97387,0,0,1,2.4795.2724,13.81433,13.81433,0,0,1,2.5547.6172c.8384.2871,1.6748.6231,2.4936.9941.4053.1954.8169.378,1.2066.5977.3882.2227.7651.4629,1.1367.7041a24.01184,24.01184,0,0,1,2.104,1.5439,19.50852,19.50852,0,0,1,1.77,1.7442,15.4329,15.4329,0,0,1,1.4116,1.7891,19.2937,19.2937,0,0,1,1.0274,1.7119,13.45449,13.45449,0,0,1,.6611,1.4824,9.62972,9.62972,0,0,1,.3262,1.0351C123.1113,108.4375,123.1357,108.583,123.1357,108.583Z"/>
            <path class="cls-4" d="M33.5918,87.3887s.0649-.1133.1914-.294c.1279-.1699.3096-.457.5522-.7451a13.917,13.917,0,0,1,2.0567-2.0547,13.76737,13.76737,0,0,1,3.0503-1.8769,9.71684,9.71684,0,0,1,1.8257-.6299,16.06374,16.06374,0,0,1,1.9868-.3613,14.39153,14.39153,0,0,1,2.0176-.0899,14.26188,14.26188,0,0,1,2.0014.2852,13.3702,13.3702,0,0,1,1.8555.5322,14.75772,14.75772,0,0,1,1.5771.7813,13.71055,13.71055,0,0,1,2.3604,1.7168c.2851.25.5088.5058.6611.6543.1529.1601.2344.2626.2344.2626s-.0786.1065-.2261.2706c-.1474.1523-.3633.416-.6387.6738a13.86206,13.86206,0,0,1-2.2783,1.7871,14.3618,14.3618,0,0,1-1.5224.8291,13.476,13.476,0,0,1-1.6001.7061,11.34762,11.34762,0,0,1-1.6934.4726,14.88056,14.88056,0,0,1-1.7788.3242,12.86384,12.86384,0,0,1-1.8091.0674c-.5913-.0254-1.2197-.0752-1.8432-.1582a13.63308,13.63308,0,0,1-3.4444-.957,13.82391,13.82391,0,0,1-2.5376-1.4033c-.3115-.21-.5654-.4356-.7343-.5625C33.6855,87.4805,33.5918,87.3887,33.5918,87.3887Z"/>
            <path class="cls-4" d="M38.5952,58.9297s.1226-.0674.3418-.1621c.2153-.085.5444-.2461.937-.3789a16.54753,16.54753,0,0,1,3.1489-.7695,17.69342,17.69342,0,0,1,4.1172-.1055,13.10909,13.10909,0,0,1,2.2017.3672,20.82981,20.82981,0,0,1,2.2012.6689,19.3765,19.3765,0,0,1,4.06,2.0528,18.07711,18.07711,0,0,1,1.6939,1.3291,18.31,18.31,0,0,1,1.4223,1.4179,17.13008,17.13008,0,0,1,1.1177,1.3946,14.47527,14.47527,0,0,1,.7925,1.2421c.2124.3584.3555.6963.4624.9024.103.2158.1509.3476.1509.3476s-.127.0606-.3521.1446c-.2207.0742-.5586.2187-.9585.331a17.51714,17.51714,0,0,1-3.1748.6319,18.472,18.472,0,0,1-1.9809.0937,17.51381,17.51381,0,0,1-2.1045-.1494,18.07429,18.07429,0,0,1-4.2481-1.0225A21.353,21.353,0,0,1,44.5,65.2793a17.76691,17.76691,0,0,1-3.1963-2.6035,16.42337,16.42337,0,0,1-2.0249-2.5352c-.2314-.3447-.3931-.6738-.5122-.873C38.6514,59.0586,38.5952,58.9297,38.5952,58.9297Z"/>
            <path class="cls-4" d="M66.5801,38.1504s.1347.0361.3584.1182c.2133.0879.561.1992.9345.3759a16.25462,16.25462,0,0,1,2.793,1.6163,10.53687,10.53687,0,0,1,1.5357,1.3007,18.67751,18.67751,0,0,1,1.4687,1.6866c.2368.3046.4639.623.688.9482.2017.3379.4028.6826.5898,1.0371a18.47455,18.47455,0,0,1,1.0108,2.2119,23.273,23.273,0,0,1,.6504,2.3926,16.2166,16.2166,0,0,1,.2426,2.3965,13.51374,13.51374,0,0,1-.1362,2.2187,13.8108,13.8108,0,0,1-.4126,1.9551c-.1728.6045-.3706,1.1758-.5625,1.668-.1968.5-.3935.9453-.582,1.3203-.1758.373-.3721.6826-.4805.8887-.1186.208-.1997.3242-.1997.3242s-.1216-.0664-.3179-.2012c-.1855-.1357-.4951-.3281-.8149-.5937a14.02381,14.02381,0,0,1-1.1025-.9825,16.142,16.142,0,0,1-1.1939-1.3281c-.3867-.4912-.7944-1.0517-1.1567-1.5908-.3731-.541-.6973-1.1553-1.0298-1.7236a18.24568,18.24568,0,0,1-.8799-1.7793,15.10383,15.10383,0,0,1-.7407-1.8487c-.2266-.6357-.4556-1.2851-.6187-1.9453-.0854-.3291-.1548-.6621-.2197-.9951-.0752-.332-.1499-.6601-.2061-.9922a16.67451,16.67451,0,0,1-.226-1.9844c-.024-.6474-.0498-1.3242-.0606-1.9511a16.21668,16.21668,0,0,1,.315-3.2071c.0747-.4052.188-.7529.2412-.9765C66.5303,38.2803,66.5801,38.1504,66.5801,38.1504Z"/>
            <path class="cls-4" d="M88.3916,40.6211s.0547.1221.1274.3359c.0625.209.1895.5332.2813.9112a14.6631,14.6631,0,0,1,.457,2.9765c.0166.5811.0274,1.2032.0327,1.8018a14.33366,14.33366,0,0,1-.1303,1.832,17.6458,17.6458,0,0,1-.3692,1.834,15.01764,15.01764,0,0,1-.5903,1.8418,16.49307,16.49307,0,0,1-1.812,3.3858,17.49978,17.49978,0,0,1-1.1504,1.4677c-.3955.46-.8516.876-1.2525,1.2657a17.42833,17.42833,0,0,1-2.3549,1.8095c-.3223.2149-.6353.3711-.8184.4854-.1963.1123-.3188.1699-.3188.1699s-.0801-.1055-.1973-.3008c-.1079-.1933-.2964-.4863-.4609-.8428a11.48915,11.48915,0,0,1-.5313-1.2822,14.585,14.585,0,0,1-.4477-1.6172,13.14666,13.14666,0,0,1-.25-1.8554,12.98727,12.98727,0,0,1,.0131-2.001,15.38872,15.38872,0,0,1,.3272-2.0498,12.53638,12.53638,0,0,1,.6357-2.0156,17.45331,17.45331,0,0,1,.9107-1.9092,12.42734,12.42734,0,0,1,1.1884-1.7549,15.67307,15.67307,0,0,1,1.3619-1.5098,9.00056,9.00056,0,0,1,1.4438-1.1562,14.55976,14.55976,0,0,1,2.6607-1.4063c.3579-.1523.6938-.2441.8989-.3183C88.2612,40.6504,88.3916,40.6211,88.3916,40.6211Z"/>
            <path class="cls-4" d="M31.7275,108.9746s.0279-.1474.0996-.3984a10.20055,10.20055,0,0,1,.3511-1.0518,14.59908,14.59908,0,0,1,.6958-1.5078,18.77048,18.77048,0,0,1,4.3545-5.3662,25.58633,25.58633,0,0,1,2.1675-1.5898,16.84006,16.84006,0,0,1,2.4053-1.3614c.8437-.3867,1.7041-.7392,2.5673-1.0439.4346-.1465.8589-.2998,1.3003-.4063.4458-.1005.8868-.1933,1.3257-.2685a24.25625,24.25625,0,0,1,2.5567-.3135c.4111-.0283.8115-.0459,1.2026-.0469.395.0088.7871.042,1.1602.0801a17.83976,17.83976,0,0,1,3.6416.7539c.4394.1348.7949.3008,1.0297.3887.2373.0986.3672.1689.3672.1689s-.0805.1319-.2373.3477c-.1596.2041-.3828.541-.6797.8916a21.69023,21.69023,0,0,1-2.4589,2.5517c-.5108.4405-1.0635.919-1.6485,1.4239a21.433,21.433,0,0,1-1.8706,1.3867c-.3286.2207-.668.4258-1.0127.6309q-.51345.3192-1.0386.6464a24.292,24.292,0,0,1-2.187,1.1495c-.7588.3242-1.5078.6835-2.2705.9902a21.79027,21.79027,0,0,1-2.3164.7793c-.7622.2422-1.5205.4472-2.269.6055-.7476.1591-1.4908.2617-2.169.3759-.6909.0967-1.3481.1612-1.9536.1924-.5981.0342-1.1274.0557-1.5928.0508-.455.0049-.8549-.0332-1.1088-.0303C31.8774,108.9942,31.7275,108.9746,31.7275,108.9746Z"/>
          </g>
        </g>
        <path class="cls-5" d="M70.1499,113.4297a4.6804,4.6804,0,1,1-4.6802-4.6826A4.68037,4.68037,0,0,1,70.1499,113.4297Z"/>
        <path class="cls-5" d="M96.5469,113.4297a4.68115,4.68115,0,1,1-4.6822-4.6826A4.6824,4.6824,0,0,1,96.5469,113.4297Z"/>
      </g>
    </g>
  </g>
</svg>
